999
dxflib 3.7.5.0
  0
SECTION
  2
HEADER
  9
$ACADVER
  1
AC1015
  9
$HANDSEED
  5
FFFF
  9
$DIMADEC
 70
0
  9
$DIMASZ
 40
2.5
  9
$DIMAUNIT
 70
0
  9
$DIMAZIN
 70
2
  9
$DIMDEC
 70
4
  9
$DIMEXE
 40
1.25
  9
$DIMEXO
 40
0.625
  9
$DIMGAP
 40
0.625
  9
$DIMLUNIT
 70
2
  9
$DIMSCALE
 40
1.0
  9
$DIMTSZ
 40
0.0
  9
$DIMTXT
 40
2.5
  9
$DIMZIN
 70
8
  9
$DWGCODEPAGE
  3
ANSI_1252
  9
$INSUNITS
 70
4
  9
$LTSCALE
 40
1
  0
ENDSEC
  0
SECTION
  2
TABLES
  0
TABLE
  2
VPORT
  5
8
100
AcDbSymbolTable
 70
1
  0
VPORT
  5
30
100
AcDbSymbolTableRecord
100
AcDbViewportTableRecord
  2
*Active
 70
0
 10
0.0
 20
0.0
 11
1.0
 21
1.0
 12
286.3055555555554861
 22
148.5
 13
0.0
 23
0.0
 14
10.0
 24
10.0
 15
10.0
 25
10.0
 16
0.0
 26
0.0
 36
1.0
 17
0.0
 27
0.0
 37
0.0
 40
297.0
 41
1.92798353909465
 42
50.0
 43
0.0
 44
0.0
 50
0.0
 51
0.0
 71
0
 72
100
 73
1
 74
3
 75
1
 76
1
 77
0
 78
0
281
0
 65
1
110
0.0
120
0.0
130
0.0
111
1.0
121
0.0
131
0.0
112
0.0
122
1.0
132
0.0
 79
0
146
0.0
  0
ENDTAB
  0
TABLE
  2
LTYPE
  5
5
100
AcDbSymbolTable
 70
41
  0
LTYPE
  5
16
100
AcDbSymbolTableRecord
100
AcDbLinetypeTableRecord
  2
Continuous
 70
0
  3
Solid line
 72
65
 73
0
 40
0.0
  0
LTYPE
  5
31
100
AcDbSymbolTableRecord
100
AcDbLinetypeTableRecord
  2
ACAD_ISO15W100
 70
0
  3
ISO double-dash triple-dot __ __ . . . __ __ . .
 72
65
 73
10
 40
39.0000000000000071
 49
12.0
 74
0
 49
-3.0
 74
0
 49
12.0
 74
0
 49
-2.9500000000000002
 74
0
 49
0.1
 74
0
 49
-2.9000000000000004
 74
0
 49
0.1
 74
0
 49
-2.9000000000000004
 74
0
 49
0.1
 74
0
 49
-2.9500000000000002
 74
0
  0
LTYPE
  5
32
100
AcDbSymbolTableRecord
100
AcDbLinetypeTableRecord
  2
DIVIDE
 70
0
  3
Divide ____ . . ____ . . ____ . . ____ . . ____
 72
65
 73
6
 40
31.7500000000000036
 49
12.6999999999999993
 74
0
 49
-6.2999999999999998
 74
0
 49
0.1
 74
0
 49
-6.25
 74
0
 49
0.1
 74
0
 49
-6.2999999999999998
 74
0
  0
LTYPE
  5
33
100
AcDbSymbolTableRecord
100
AcDbLinetypeTableRecord
  2
ACAD_ISO10W100
 70
0
  3
ISO dash dot __ . __ . __ . __ . __ . __ . __ . 
 72
65
 73
4
 40
18.0
 49
12.0
 74
0
 49
-2.9500000000000002
 74
0
 49
0.1
 74
0
 49
-2.9500000000000002
 74
0
  0
LTYPE
  5
34
100
AcDbSymbolTableRecord
100
AcDbLinetypeTableRecord
  2
ACAD_ISO04W100
 70
0
  3
ISO long-dash dot ____ . ____ . ____ . ____ . _
 72
65
 73
4
 40
30.0
 49
24.0
 74
0
 49
-2.9500000000000002
 74
0
 49
0.1
 74
0
 49
-2.9500000000000002
 74
0
  0
LTYPE
  5
35
100
AcDbSymbolTableRecord
100
AcDbLinetypeTableRecord
  2
CENTER2
 70
0
  3
Center (.5x) ___ _ ___ _ ___ _ ___ _ ___ _ ___
 72
65
 73
4
 40
28.5750000000000028
 49
19.0500000000000007
 74
0
 49
-3.1749999999999998
 74
0
 49
3.1749999999999998
 74
0
 49
-3.1749999999999998
 74
0
  0
LTYPE
  5
36
100
AcDbSymbolTableRecord
100
AcDbLinetypeTableRecord
  2
ACAD_ISO11W100
 70
0
  3
ISO double-dash dot __ __ . __ __ . __ __ . __ _
 72
65
 73
6
 40
33.0
 49
12.0
 74
0
 49
-3.0
 74
0
 49
12.0
 74
0
 49
-2.9500000000000002
 74
0
 49
0.1
 74
0
 49
-2.9500000000000002
 74
0
  0
LTYPE
  5
37
100
AcDbSymbolTableRecord
100
AcDbLinetypeTableRecord
  2
HIDDEN2
 70
0
  3
Hidden (.5x) _ _ _ _ _ _ _ _ _ _ _ _ _ _ _ _ _ 
 72
65
 73
2
 40
4.7624999999999993
 49
3.1749999999999998
 74
0
 49
-1.5874999999999999
 74
0
  0
LTYPE
  5
38
100
AcDbSymbolTableRecord
100
AcDbLinetypeTableRecord
  2
BORDERX2
 70
0
  3
Border (2x) ____  ____  .  ____  ____  .  ___
 72
65
 73
6
 40
88.8999999999999773
 49
25.3999999999999986
 74
0
 49
-12.6999999999999993
 74
0
 49
25.3999999999999986
 74
0
 49
-12.6499999999999986
 74
0
 49
0.1
 74
0
 49
-12.6499999999999986
 74
0
  0
LTYPE
  5
39
100
AcDbSymbolTableRecord
100
AcDbLinetypeTableRecord
  2
ACAD_ISO05W100
 70
0
  3
ISO long-dash double-dot ____ .. ____ .. ____ . 
 72
65
 73
6
 40
33.0000000000000071
 49
24.0
 74
0
 49
-2.9500000000000002
 74
0
 49
0.1
 74
0
 49
-2.9000000000000004
 74
0
 49
0.1
 74
0
 49
-2.9500000000000002
 74
0
  0
LTYPE
  5
3A
100
AcDbSymbolTableRecord
100
AcDbLinetypeTableRecord
  2
DASHDOTX2
 70
0
  3
Dash dot (2x) ____  .  ____  .  ____  .  ___
 72
65
 73
4
 40
50.7999999999999972
 49
25.3999999999999986
 74
0
 49
-12.6499999999999986
 74
0
 49
0.1
 74
0
 49
-12.6499999999999986
 74
0
  0
LTYPE
  5
3B
100
AcDbSymbolTableRecord
100
AcDbLinetypeTableRecord
  2
HIDDENX2
 70
0
  3
Hidden (2x) ____ ____ ____ ____ ____ ____ ____ 
 72
65
 73
2
 40
19.0499999999999972
 49
12.6999999999999993
 74
0
 49
-6.3499999999999996
 74
0
  0
LTYPE
  5
3C
100
AcDbSymbolTableRecord
100
AcDbLinetypeTableRecord
  2
CENTERX2
 70
0
  3
Center (2x) ________  __  ________  __  _____
 72
65
 73
4
 40
101.6000000000000085
 49
63.5
 74
0
 49
-12.6999999999999993
 74
0
 49
12.6999999999999993
 74
0
 49
-12.6999999999999993
 74
0
  0
LTYPE
  5
3D
100
AcDbSymbolTableRecord
100
AcDbLinetypeTableRecord
  2
BORDER2
 70
0
  3
Border (.5x) __.__.__.__.__.__.__.__.__.__.__.
 72
65
 73
6
 40
22.2250000000000014
 49
6.3499999999999996
 74
0
 49
-3.1749999999999998
 74
0
 49
6.3499999999999996
 74
0
 49
-3.125
 74
0
 49
0.1
 74
0
 49
-3.125
 74
0
  0
LTYPE
  5
3E
100
AcDbSymbolTableRecord
100
AcDbLinetypeTableRecord
  2
DASHDOT2
 70
0
  3
Dash dot (.5x) _._._._._._._._._._._._._._._.
 72
65
 73
4
 40
12.6999999999999993
 49
6.3499999999999996
 74
0
 49
-3.125
 74
0
 49
0.1
 74
0
 49
-3.125
 74
0
  0
LTYPE
  5
3F
100
AcDbSymbolTableRecord
100
AcDbLinetypeTableRecord
  2
ACAD_ISO12W100
 70
0
  3
ISO dash double-dot __ . . __ . . __ . . __ . . 
 72
65
 73
6
 40
21.0
 49
12.0
 74
0
 49
-2.9500000000000002
 74
0
 49
0.1
 74
0
 49
-2.9000000000000004
 74
0
 49
0.1
 74
0
 49
-2.9500000000000002
 74
0
  0
LTYPE
  5
40
100
AcDbSymbolTableRecord
100
AcDbLinetypeTableRecord
  2
ACAD_ISO07W100
 70
0
  3
ISO dot . . . . . . . . . . . . . . . . . . . . 
 72
65
 73
2
 40
3.0
 49
0.1
 74
0
 49
-2.8999999999999999
 74
0
  0
LTYPE
  5
41
100
AcDbSymbolTableRecord
100
AcDbLinetypeTableRecord
  2
HIDDEN
 70
0
  3
Hidden __ __ __ __ __ __ __ __ __ __ __ __ __ __
 72
65
 73
2
 40
9.5249999999999986
 49
6.3499999999999996
 74
0
 49
-3.1749999999999998
 74
0
  0
LTYPE
  5
42
100
AcDbSymbolTableRecord
100
AcDbLinetypeTableRecord
  2
ACAD_ISO06W100
 70
0
  3
ISO long-dash triple-dot ____ ... ____ ... ____
 72
65
 73
8
 40
36.0000000000000071
 49
24.0
 74
0
 49
-2.9500000000000002
 74
0
 49
0.1
 74
0
 49
-2.9000000000000004
 74
0
 49
0.1
 74
0
 49
-2.9000000000000004
 74
0
 49
0.1
 74
0
 49
-2.9500000000000002
 74
0
  0
LTYPE
  5
43
100
AcDbSymbolTableRecord
100
AcDbLinetypeTableRecord
  2
CENTER
 70
0
  3
Center ____ _ ____ _ ____ _ ____ _ ____ _ ____
 72
65
 73
4
 40
50.8000000000000043
 49
31.75
 74
0
 49
-6.3499999999999996
 74
0
 49
6.3499999999999996
 74
0
 49
-6.3499999999999996
 74
0
  0
LTYPE
  5
44
100
AcDbSymbolTableRecord
100
AcDbLinetypeTableRecord
  2
DOTX2
 70
0
  3
Dot (2x) .  .  .  .  .  .  .  .  .  .  .  .  .  .
 72
65
 73
2
 40
12.6999999999999993
 49
0.1
 74
0
 49
-12.5999999999999996
 74
0
  0
LTYPE
  5
45
100
AcDbSymbolTableRecord
100
AcDbLinetypeTableRecord
  2
PHANTOM
 70
0
  3
Phantom ______  __  __  ______  __  __  ______ 
 72
65
 73
6
 40
63.5000000000000071
 49
31.75
 74
0
 49
-6.3499999999999996
 74
0
 49
6.3499999999999996
 74
0
 49
-6.3499999999999996
 74
0
 49
6.3499999999999996
 74
0
 49
-6.3499999999999996
 74
0
  0
LTYPE
  5
46
100
AcDbSymbolTableRecord
100
AcDbLinetypeTableRecord
  2
ACAD_ISO08W100
 70
0
  3
ISO long-dash short-dash ____ __ ____ __ ____ _
 72
65
 73
4
 40
36.0
 49
24.0
 74
0
 49
-3.0
 74
0
 49
6.0
 74
0
 49
-3.0
 74
0
  0
LTYPE
  5
47
100
AcDbSymbolTableRecord
100
AcDbLinetypeTableRecord
  2
DASHEDX2
 70
0
  3
Dashed (2x) ____  ____  ____  ____  ____  ___
 72
65
 73
2
 40
38.0999999999999943
 49
25.3999999999999986
 74
0
 49
-12.6999999999999993
 74
0
  0
LTYPE
  5
48
100
AcDbSymbolTableRecord
100
AcDbLinetypeTableRecord
  2
ACAD_ISO02W100
 70
0
  3
ISO dash __ __ __ __ __ __ __ __ __ __ __ __ __
 72
65
 73
2
 40
15.0
 49
12.0
 74
0
 49
-3.0
 74
0
  0
LTYPE
  5
49
100
AcDbSymbolTableRecord
100
AcDbLinetypeTableRecord
  2
PHANTOM2
 70
0
  3
Phantom (.5x) ___ _ _ ___ _ _ ___ _ _ ___ _ _
 72
65
 73
6
 40
31.7500000000000036
 49
15.875
 74
0
 49
-3.1749999999999998
 74
0
 49
3.1749999999999998
 74
0
 49
-3.1749999999999998
 74
0
 49
3.1749999999999998
 74
0
 49
-3.1749999999999998
 74
0
  0
LTYPE
  5
4A
100
AcDbSymbolTableRecord
100
AcDbLinetypeTableRecord
  2
DASHED2
 70
0
  3
Dashed (.5x) _ _ _ _ _ _ _ _ _ _ _ _ _ _ _ _ _ 
 72
65
 73
2
 40
9.5249999999999986
 49
6.3499999999999996
 74
0
 49
-3.1749999999999998
 74
0
  0
LTYPE
  5
4B
100
AcDbSymbolTableRecord
100
AcDbLinetypeTableRecord
  2
ACAD_ISO09W100
 70
0
  3
ISO long-dash double-short-dash ____ __ __ ____
 72
65
 73
6
 40
45.0
 49
24.0
 74
0
 49
-3.0
 74
0
 49
6.0
 74
0
 49
-3.0
 74
0
 49
6.0
 74
0
 49
-3.0
 74
0
  0
LTYPE
  5
4C
100
AcDbSymbolTableRecord
100
AcDbLinetypeTableRecord
  2
ACAD_ISO13W100
 70
0
  3
ISO double-dash double-dot __ __ . . __ __ . . _
 72
65
 73
8
 40
36.0000000000000071
 49
12.0
 74
0
 49
-3.0
 74
0
 49
12.0
 74
0
 49
-2.9500000000000002
 74
0
 49
0.1
 74
0
 49
-2.9000000000000004
 74
0
 49
0.1
 74
0
 49
-2.9500000000000002
 74
0
  0
LTYPE
  5
4D
100
AcDbSymbolTableRecord
100
AcDbLinetypeTableRecord
  2
DOT2
 70
0
  3
Dot (.5x) ........................................
 72
65
 73
2
 40
3.1749999999999998
 49
0.1
 74
0
 49
-3.0749999999999997
 74
0
  0
LTYPE
  5
4E
100
AcDbSymbolTableRecord
100
AcDbLinetypeTableRecord
  2
DASHED
 70
0
  3
Dashed __ __ __ __ __ __ __ __ __ __ __ __ __ _
 72
65
 73
2
 40
19.0499999999999972
 49
12.6999999999999993
 74
0
 49
-6.3499999999999996
 74
0
  0
LTYPE
  5
4F
100
AcDbSymbolTableRecord
100
AcDbLinetypeTableRecord
  2
ACAD_ISO14W100
 70
0
  3
ISO dash triple-dot __ . . . __ . . . __ . . . _
 72
65
 73
8
 40
24.0000000000000036
 49
12.0
 74
0
 49
-2.9500000000000002
 74
0
 49
0.1
 74
0
 49
-2.9000000000000004
 74
0
 49
0.1
 74
0
 49
-2.9000000000000004
 74
0
 49
0.1
 74
0
 49
-2.9500000000000002
 74
0
  0
LTYPE
  5
15
100
AcDbSymbolTableRecord
100
AcDbLinetypeTableRecord
  2
BYLAYER
 70
0
  3

 72
65
 73
0
 40
0.0
  0
LTYPE
  5
50
100
AcDbSymbolTableRecord
100
AcDbLinetypeTableRecord
  2
PHANTOMX2
 70
0
  3
Phantom (2x) ____________    ____    ____   _
 72
65
 73
6
 40
127.0000000000000142
 49
63.5
 74
0
 49
-12.6999999999999993
 74
0
 49
12.6999999999999993
 74
0
 49
-12.6999999999999993
 74
0
 49
12.6999999999999993
 74
0
 49
-12.6999999999999993
 74
0
  0
LTYPE
  5
14
100
AcDbSymbolTableRecord
100
AcDbLinetypeTableRecord
  2
BYBLOCK
 70
0
  3

 72
65
 73
0
 40
0.0
  0
LTYPE
  5
51
100
AcDbSymbolTableRecord
100
AcDbLinetypeTableRecord
  2
DIVIDEX2
 70
0
  3
Divide (2x) ________  .  .  ________  .  .  _
 72
65
 73
6
 40
63.5
 49
25.3999999999999986
 74
0
 49
-12.6499999999999986
 74
0
 49
0.1
 74
0
 49
-12.5999999999999979
 74
0
 49
0.1
 74
0
 49
-12.6499999999999986
 74
0
  0
LTYPE
  5
52
100
AcDbSymbolTableRecord
100
AcDbLinetypeTableRecord
  2
BORDER
 70
0
  3
Border __ __ . __ __ . __ __ . __ __ . __ __ .
 72
65
 73
6
 40
44.4499999999999957
 49
12.6999999999999993
 74
0
 49
-6.3499999999999996
 74
0
 49
12.6999999999999993
 74
0
 49
-6.2999999999999998
 74
0
 49
0.1
 74
0
 49
-6.2999999999999998
 74
0
  0
LTYPE
  5
53
100
AcDbSymbolTableRecord
100
AcDbLinetypeTableRecord
  2
DIVIDE2
 70
0
  3
Divide (.5x) __..__..__..__..__..__..__..__.._
 72
65
 73
6
 40
15.8749999999999982
 49
6.3499999999999996
 74
0
 49
-3.125
 74
0
 49
0.1
 74
0
 49
-3.0750000000000002
 74
0
 49
0.1
 74
0
 49
-3.125
 74
0
  0
LTYPE
  5
54
100
AcDbSymbolTableRecord
100
AcDbLinetypeTableRecord
  2
DOT
 70
0
  3
Dot . . . . . . . . . . . . . . . . . . . . . . . .
 72
65
 73
2
 40
6.3499999999999996
 49
0.1
 74
0
 49
-6.25
 74
0
  0
LTYPE
  5
55
100
AcDbSymbolTableRecord
100
AcDbLinetypeTableRecord
  2
DASHDOT
 70
0
  3
Dash dot __ . __ . __ . __ . __ . __ . __ . __
 72
65
 73
4
 40
25.4000000000000021
 49
12.6999999999999993
 74
0
 49
-6.2999999999999998
 74
0
 49
0.1
 74
0
 49
-6.2999999999999998
 74
0
  0
LTYPE
  5
56
100
AcDbSymbolTableRecord
100
AcDbLinetypeTableRecord
  2
ACAD_ISO03W100
 70
0
  3
ISO dash space __    __    __    __    __    __
 72
65
 73
2
 40
30.0
 49
12.0
 74
0
 49
-18.0
 74
0
  0
ENDTAB
  0
TABLE
  2
LAYER
  5
2
100
AcDbSymbolTable
 70
3
  0
LAYER
  5
57
100
AcDbSymbolTableRecord
100
AcDbLayerTableRecord
  2
outerBoundaries
 70
4
 62
6
420
16711935
  6
Continuous
370
80
390
F
  0
LAYER
  5
58
100
AcDbSymbolTableRecord
100
AcDbLayerTableRecord
  2
key cutouts
 70
4
 62
7
420
0
  6
Continuous
370
25
390
F
  0
LAYER
  5
10
100
AcDbSymbolTableRecord
100
AcDbLayerTableRecord
  2
0
 70
0
 62
7
420
0
  6
Continuous
370
25
390
F
  0
ENDTAB
  0
TABLE
  2
STYLE
  5
3
100
AcDbSymbolTable
 70
1
  0
STYLE
  5
59
100
AcDbSymbolTableRecord
100
AcDbTextStyleTableRecord
  2
Standard
 70
0
 40
0.0
 41
1.0
 50
0.0
 71
0
 42
2.5
  3

  4

1001
ACAD
1000
txt
1071
0
  0
ENDTAB
  0
TABLE
  2
VIEW
  5
6
100
AcDbSymbolTable
 70
0
  0
ENDTAB
  0
TABLE
  2
UCS
  5
7
100
AcDbSymbolTable
 70
0
  0
ENDTAB
  0
TABLE
  2
APPID
  5
9
100
AcDbSymbolTable
 70
1
  0
APPID
  5
12
100
AcDbSymbolTableRecord
100
AcDbRegAppTableRecord
  2
ACAD
 70
0
  0
APPID
  5
5A
100
AcDbSymbolTableRecord
100
AcDbRegAppTableRecord
  2
QCAD
 70
0
  0
ENDTAB
  0
TABLE
  2
DIMSTYLE
  5
A
100
AcDbSymbolTable
 70
1
100
AcDbDimStyleTable
 71
0
  0
DIMSTYLE
105
27
100
AcDbSymbolTableRecord
100
AcDbDimStyleTableRecord
  2
Standard
 41
2.5
 42
0.625
 43
3.75
 44
1.25
 70
0
 73
0
 74
0
 77
1
 78
8
140
2.5
141
2.5
143
0.03937007874016
147
0.625
171
3
172
1
271
2
272
2
274
3
278
44
283
0
284
8
340
59
  0
ENDTAB
  0
TABLE
  2
BLOCK_RECORD
  5
1
100
AcDbSymbolTable
 70
1
  0
BLOCK_RECORD
  5
1F
100
AcDbSymbolTableRecord
100
AcDbBlockTableRecord
  2
*Model_Space
340
22
  0
BLOCK_RECORD
  5
1B
100
AcDbSymbolTableRecord
100
AcDbBlockTableRecord
  2
*Paper_Space
340
1E
  0
BLOCK_RECORD
  5
23
100
AcDbSymbolTableRecord
100
AcDbBlockTableRecord
  2
*Paper_Space0
340
26
  0
ENDTAB
  0
ENDSEC
  0
SECTION
  2
BLOCKS
  0
BLOCK
  5
20
100
AcDbEntity
  8
0
100
AcDbBlockBegin
  2
*Model_Space
 70
0
 10
0.0
 20
0.0
 30
0.0
  3
*Model_Space
  1

  0
ENDBLK
  5
21
100
AcDbEntity
  8
0
100
AcDbBlockEnd
  0
BLOCK
  5
1C
100
AcDbEntity
 67
1
  8
0
100
AcDbBlockBegin
  2
*Paper_Space
 70
0
 10
0.0
 20
0.0
 30
0.0
  3
*Paper_Space
  1

  0
ENDBLK
  5
1D
100
AcDbEntity
 67
1
  8
0
100
AcDbBlockEnd
  0
BLOCK
  5
24
100
AcDbEntity
  8
0
100
AcDbBlockBegin
  2
*Paper_Space0
 70
0
 10
0.0
 20
0.0
 30
0.0
  3
*Paper_Space0
  1

  0
ENDBLK
  5
25
100
AcDbEntity
  8
0
100
AcDbBlockEnd
  0
ENDSEC
  0
SECTION
  2
ENTITIES
  0
LINE
  5
5B
100
AcDbEntity
100
AcDbLine
  8
key cutouts
 62
256
370
-1
 48
1.0
  6
BYLAYER
 10
0.0000000000000071
 20
53.5
 30
0.0
 11
12.7500000000000071
 21
53.5
 31
0.0
  0
LINE
  5
5C
100
AcDbEntity
100
AcDbLine
  8
key cutouts
 62
256
370
-1
 48
1.0
  6
BYLAYER
 10
12.7500000000000071
 20
53.5
 30
0.0
 11
12.7500000000000071
 21
38.0
 31
0.0
  0
LINE
  5
5D
100
AcDbEntity
100
AcDbLine
  8
key cutouts
 62
256
370
-1
 48
1.0
  6
BYLAYER
 10
12.7500000000000071
 20
38.0
 30
0.0
 11
0.0000000000000071
 21
38.0
 31
0.0
  0
LINE
  5
5E
100
AcDbEntity
100
AcDbLine
  8
key cutouts
 62
256
370
-1
 48
1.0
  6
BYLAYER
 10
0.0000000000000071
 20
38.0
 30
0.0
 11
0.0000000000000071
 21
53.5
 31
0.0
  0
LINE
  5
5F
100
AcDbEntity
100
AcDbLine
  8
key cutouts
 62
256
370
-1
 48
1.0
  6
BYLAYER
 10
19.0500000000000078
 20
53.5
 30
0.0
 11
31.8000000000000078
 21
53.5
 31
0.0
  0
LINE
  5
60
100
AcDbEntity
100
AcDbLine
  8
key cutouts
 62
256
370
-1
 48
1.0
  6
BYLAYER
 10
31.8000000000000078
 20
53.5
 30
0.0
 11
31.8000000000000078
 21
38.0
 31
0.0
  0
LINE
  5
61
100
AcDbEntity
100
AcDbLine
  8
key cutouts
 62
256
370
-1
 48
1.0
  6
BYLAYER
 10
31.8000000000000078
 20
38.0
 30
0.0
 11
19.0500000000000078
 21
38.0
 31
0.0
  0
LINE
  5
62
100
AcDbEntity
100
AcDbLine
  8
key cutouts
 62
256
370
-1
 48
1.0
  6
BYLAYER
 10
19.0500000000000078
 20
38.0
 30
0.0
 11
19.0500000000000078
 21
53.5
 31
0.0
  0
LINE
  5
63
100
AcDbEntity
100
AcDbLine
  8
key cutouts
 62
256
370
-1
 48
1.0
  6
BYLAYER
 10
38.1000000000000085
 20
53.5
 30
0.0
 11
50.8500000000000085
 21
53.5
 31
0.0
  0
LINE
  5
64
100
AcDbEntity
100
AcDbLine
  8
key cutouts
 62
256
370
-1
 48
1.0
  6
BYLAYER
 10
50.8500000000000085
 20
53.5
 30
0.0
 11
50.8500000000000085
 21
38.0
 31
0.0
  0
LINE
  5
65
100
AcDbEntity
100
AcDbLine
  8
key cutouts
 62
256
370
-1
 48
1.0
  6
BYLAYER
 10
50.8500000000000085
 20
38.0
 30
0.0
 11
38.1000000000000085
 21
38.0
 31
0.0
  0
LINE
  5
66
100
AcDbEntity
100
AcDbLine
  8
key cutouts
 62
256
370
-1
 48
1.0
  6
BYLAYER
 10
38.1000000000000085
 20
38.0
 30
0.0
 11
38.1000000000000085
 21
53.5
 31
0.0
  0
LINE
  5
67
100
AcDbEntity
100
AcDbLine
  8
key cutouts
 62
256
370
-1
 48
1.0
  6
BYLAYER
 10
57.1500000000000057
 20
53.5
 30
0.0
 11
69.9000000000000057
 21
53.5
 31
0.0
  0
LINE
  5
68
100
AcDbEntity
100
AcDbLine
  8
key cutouts
 62
256
370
-1
 48
1.0
  6
BYLAYER
 10
69.9000000000000057
 20
53.5
 30
0.0
 11
69.9000000000000057
 21
38.0
 31
0.0
  0
LINE
  5
69
100
AcDbEntity
100
AcDbLine
  8
key cutouts
 62
256
370
-1
 48
1.0
  6
BYLAYER
 10
69.9000000000000057
 20
38.0
 30
0.0
 11
57.1500000000000057
 21
38.0
 31
0.0
  0
LINE
  5
6A
100
AcDbEntity
100
AcDbLine
  8
key cutouts
 62
256
370
-1
 48
1.0
  6
BYLAYER
 10
57.1500000000000057
 20
38.0
 30
0.0
 11
57.1500000000000057
 21
53.5
 31
0.0
  0
LINE
  5
6B
100
AcDbEntity
100
AcDbLine
  8
key cutouts
 62
256
370
-1
 48
1.0
  6
BYLAYER
 10
0.0000000000000071
 20
34.5
 30
0.0
 11
12.7500000000000071
 21
34.5
 31
0.0
  0
LINE
  5
6C
100
AcDbEntity
100
AcDbLine
  8
key cutouts
 62
256
370
-1
 48
1.0
  6
BYLAYER
 10
12.7500000000000071
 20
34.5
 30
0.0
 11
12.7500000000000071
 21
19.0
 31
0.0
  0
LINE
  5
6D
100
AcDbEntity
100
AcDbLine
  8
key cutouts
 62
256
370
-1
 48
1.0
  6
BYLAYER
 10
12.7500000000000071
 20
19.0
 30
0.0
 11
0.0000000000000071
 21
19.0
 31
0.0
  0
LINE
  5
6E
100
AcDbEntity
100
AcDbLine
  8
key cutouts
 62
256
370
-1
 48
1.0
  6
BYLAYER
 10
0.0000000000000071
 20
19.0
 30
0.0
 11
0.0000000000000071
 21
34.5
 31
0.0
  0
LINE
  5
6F
100
AcDbEntity
100
AcDbLine
  8
key cutouts
 62
256
370
-1
 48
1.0
  6
BYLAYER
 10
19.0500000000000078
 20
34.5
 30
0.0
 11
31.8000000000000078
 21
34.5
 31
0.0
  0
LINE
  5
70
100
AcDbEntity
100
AcDbLine
  8
key cutouts
 62
256
370
-1
 48
1.0
  6
BYLAYER
 10
31.8000000000000078
 20
34.5
 30
0.0
 11
31.8000000000000078
 21
19.0
 31
0.0
  0
LINE
  5
71
100
AcDbEntity
100
AcDbLine
  8
key cutouts
 62
256
370
-1
 48
1.0
  6
BYLAYER
 10
31.8000000000000078
 20
19.0
 30
0.0
 11
19.0500000000000078
 21
19.0
 31
0.0
  0
LINE
  5
72
100
AcDbEntity
100
AcDbLine
  8
key cutouts
 62
256
370
-1
 48
1.0
  6
BYLAYER
 10
19.0500000000000078
 20
19.0
 30
0.0
 11
19.0500000000000078
 21
34.5
 31
0.0
  0
LINE
  5
73
100
AcDbEntity
100
AcDbLine
  8
key cutouts
 62
256
370
-1
 48
1.0
  6
BYLAYER
 10
38.1000000000000085
 20
34.5
 30
0.0
 11
50.8500000000000085
 21
34.5
 31
0.0
  0
LINE
  5
74
100
AcDbEntity
100
AcDbLine
  8
key cutouts
 62
256
370
-1
 48
1.0
  6
BYLAYER
 10
50.8500000000000085
 20
34.5
 30
0.0
 11
50.8500000000000085
 21
19.0
 31
0.0
  0
LINE
  5
75
100
AcDbEntity
100
AcDbLine
  8
key cutouts
 62
256
370
-1
 48
1.0
  6
BYLAYER
 10
50.8500000000000085
 20
19.0
 30
0.0
 11
38.1000000000000085
 21
19.0
 31
0.0
  0
LINE
  5
76
100
AcDbEntity
100
AcDbLine
  8
key cutouts
 62
256
370
-1
 48
1.0
  6
BYLAYER
 10
38.1000000000000085
 20
19.0
 30
0.0
 11
38.1000000000000085
 21
34.5
 31
0.0
  0
LINE
  5
77
100
AcDbEntity
100
AcDbLine
  8
key cutouts
 62
256
370
-1
 48
1.0
  6
BYLAYER
 10
57.1500000000000057
 20
34.5
 30
0.0
 11
69.9000000000000057
 21
34.5
 31
0.0
  0
LINE
  5
78
100
AcDbEntity
100
AcDbLine
  8
key cutouts
 62
256
370
-1
 48
1.0
  6
BYLAYER
 10
69.9000000000000057
 20
34.5
 30
0.0
 11
69.9000000000000057
 21
19.0
 31
0.0
  0
LINE
  5
79
100
AcDbEntity
100
AcDbLine
  8
key cutouts
 62
256
370
-1
 48
1.0
  6
BYLAYER
 10
69.9000000000000057
 20
19.0
 30
0.0
 11
57.1500000000000057
 21
19.0
 31
0.0
  0
LINE
  5
7A
100
AcDbEntity
100
AcDbLine
  8
key cutouts
 62
256
370
-1
 48
1.0
  6
BYLAYER
 10
57.1500000000000057
 20
19.0
 30
0.0
 11
57.1500000000000057
 21
34.5
 31
0.0
  0
LINE
  5
7B
100
AcDbEntity
100
AcDbLine
  8
key cutouts
 62
256
370
-1
 48
1.0
  6
BYLAYER
 10
0.0000000000000071
 20
15.5
 30
0.0
 11
12.75
 21
15.5
 31
0.0
  0
LINE
  5
7C
100
AcDbEntity
100
AcDbLine
  8
key cutouts
 62
256
370
-1
 48
1.0
  6
BYLAYER
 10
12.75
 20
15.5
 30
0.0
 11
12.75
 21
0.0
 31
0.0
  0
LINE
  5
7D
100
AcDbEntity
100
AcDbLine
  8
key cutouts
 62
256
370
-1
 48
1.0
  6
BYLAYER
 10
12.75
 20
0.0
 30
0.0
 11
0.0000000000000071
 21
0.0
 31
0.0
  0
LINE
  5
7E
100
AcDbEntity
100
AcDbLine
  8
key cutouts
 62
256
370
-1
 48
1.0
  6
BYLAYER
 10
0.0000000000000071
 20
0.0
 30
0.0
 11
0.0000000000000071
 21
15.5
 31
0.0
  0
LINE
  5
7F
100
AcDbEntity
100
AcDbLine
  8
key cutouts
 62
256
370
-1
 48
1.0
  6
BYLAYER
 10
19.0500000000000078
 20
15.5
 30
0.0
 11
31.8000000000000007
 21
15.5
 31
0.0
  0
LINE
  5
80
100
AcDbEntity
100
AcDbLine
  8
key cutouts
 62
256
370
-1
 48
1.0
  6
BYLAYER
 10
31.8000000000000007
 20
15.5
 30
0.0
 11
31.8000000000000007
 21
0.0
 31
0.0
  0
LINE
  5
81
100
AcDbEntity
100
AcDbLine
  8
key cutouts
 62
256
370
-1
 48
1.0
  6
BYLAYER
 10
31.8000000000000007
 20
0.0
 30
0.0
 11
19.0500000000000078
 21
0.0
 31
0.0
  0
LINE
  5
82
100
AcDbEntity
100
AcDbLine
  8
key cutouts
 62
256
370
-1
 48
1.0
  6
BYLAYER
 10
19.0500000000000078
 20
0.0
 30
0.0
 11
19.0500000000000078
 21
15.5
 31
0.0
  0
LINE
  5
83
100
AcDbEntity
100
AcDbLine
  8
key cutouts
 62
256
370
-1
 48
1.0
  6
BYLAYER
 10
38.1000000000000085
 20
15.5
 30
0.0
 11
50.8500000000000014
 21
15.5
 31
0.0
  0
LINE
  5
84
100
AcDbEntity
100
AcDbLine
  8
key cutouts
 62
256
370
-1
 48
1.0
  6
BYLAYER
 10
50.8500000000000014
 20
15.5
 30
0.0
 11
50.8500000000000014
 21
0.0
 31
0.0
  0
LINE
  5
85
100
AcDbEntity
100
AcDbLine
  8
key cutouts
 62
256
370
-1
 48
1.0
  6
BYLAYER
 10
50.8500000000000014
 20
0.0
 30
0.0
 11
38.1000000000000085
 21
0.0
 31
0.0
  0
LINE
  5
86
100
AcDbEntity
100
AcDbLine
  8
key cutouts
 62
256
370
-1
 48
1.0
  6
BYLAYER
 10
38.1000000000000085
 20
0.0
 30
0.0
 11
38.1000000000000085
 21
15.5
 31
0.0
  0
LINE
  5
87
100
AcDbEntity
100
AcDbLine
  8
key cutouts
 62
256
370
-1
 48
1.0
  6
BYLAYER
 10
57.1500000000000057
 20
15.5
 30
0.0
 11
69.9000000000000057
 21
15.5
 31
0.0
  0
LINE
  5
88
100
AcDbEntity
100
AcDbLine
  8
key cutouts
 62
256
370
-1
 48
1.0
  6
BYLAYER
 10
69.9000000000000057
 20
15.5
 30
0.0
 11
69.9000000000000057
 21
0.0
 31
0.0
  0
LINE
  5
89
100
AcDbEntity
100
AcDbLine
  8
key cutouts
 62
256
370
-1
 48
1.0
  6
BYLAYER
 10
69.9000000000000057
 20
0.0
 30
0.0
 11
57.1500000000000057
 21
0.0
 31
0.0
  0
LINE
  5
8A
100
AcDbEntity
100
AcDbLine
  8
key cutouts
 62
256
370
-1
 48
1.0
  6
BYLAYER
 10
57.1500000000000057
 20
0.0
 30
0.0
 11
57.1500000000000057
 21
15.5
 31
0.0
  0
ARC
  5
8B
100
AcDbEntity
  8
outerBoundaries
 62
256
370
-1
 48
1.0
  6
BYLAYER
100
AcDbCircle
 10
-69.3233367664542186
 20
-11.4281694241773266
 30
0.0
 40
61.5048618149791722
100
AcDbArc
 50
8.5542925357645814
 51
102.2920503786410649
  0
ARC
  5
8C
100
AcDbEntity
  8
outerBoundaries
 62
256
370
-1
 48
1.0
  6
BYLAYER
100
AcDbCircle
 10
139.2233367664538264
 20
-11.4281694241774243
 30
0.0
 40
61.5048618149787742
100
AcDbArc
 50
77.7079496213586367
 51
171.445707464235312
  0
ARC
  5
8D
100
AcDbEntity
  8
outerBoundaries
 62
256
370
-1
 48
1.0
  6
BYLAYER
100
AcDbCircle
 10
-39.9991591434830909
 20
76.1438533835532496
 30
0.0
 40
67.2535873745447503
100
AcDbArc
 50
44.6353086885948755
 51
117.5444980621585671
  0
ARC
  5
8E
100
AcDbEntity
  8
outerBoundaries
 62
256
370
-1
 48
1.0
  6
BYLAYER
100
AcDbCircle
 10
109.8991591434827768
 20
76.1438533835542017
 30
0.0
 40
67.2535873745434287
100
AcDbArc
 50
62.4555019378407223
 51
135.3646913114052097
  0
LINE
  5
8F
100
AcDbEntity
100
AcDbLine
  8
outerBoundaries
 62
256
370
-1
 48
1.0
  6
BYLAYER
 10
1.3860590307359777
 20
-10.7920700839319732
 30
0.0
 11
68.5139409692640271
 21
-10.7920700839319945
 31
0.0
  0
LINE
  5
90
100
AcDbEntity
100
AcDbLine
  8
outerBoundaries
 62
256
370
-1
 48
1.0
  6
BYLAYER
 10
25.6478669519363969
 20
115.9604588816820581
 30
0.0
 11
44.2521330480638966
 21
115.9604588816819728
 31
0.0
  0
LINE
  5
91
100
AcDbEntity
100
AcDbLine
  8
outerBoundaries
 62
256
370
-1
 48
1.0
  6
BYLAYER
 10
-76.1442763731445922
 20
129.4597199873185218
 30
0.0
 11
-94.2152710318790412
 21
60.9893136497238686
 31
0.0
  0
LINE
  5
92
100
AcDbEntity
100
AcDbLine
  8
outerBoundaries
 62
256
370
-1
 48
1.0
  6
BYLAYER
 10
146.0442763731442994
 20
129.4597199873179818
 30
0.0
 11
164.1152710318788763
 21
60.9893136497233002
 31
0.0
  0
ARC
  5
93
100
AcDbEntity
  8
outerBoundaries
 62
256
370
-1
 48
1.0
  6
BYLAYER
100
AcDbCircle
 10
25.647866951936507
 20
140.9604588816820581
 30
0.0
 40
25.0
100
AcDbArc
 50
224.635308688594904
 51
269.9999999999997726
  0
ARC
  5
94
100
AcDbEntity
  8
outerBoundaries
 62
256
370
-1
 48
1.0
  6
BYLAYER
100
AcDbCircle
 10
44.2521330480640103
 20
140.9604588816819728
 30
0.0
 40
25.0
100
AcDbArc
 50
269.9999999999997726
 51
315.3646913114051813
  0
ARC
  5
95
100
AcDbEntity
  8
outerBoundaries
 62
256
370
-1
 48
1.0
  6
BYLAYER
100
AcDbCircle
 10
154.4463515959139954
 20
58.4374521838870749
 30
0.0
 40
10.0
100
AcDbArc
 50
257.7079496213586367
 51
14.7846154866171187
  0
ARC
  5
96
100
AcDbEntity
  8
outerBoundaries
 62
256
370
-1
 48
1.0
  6
BYLAYER
100
AcDbCircle
 10
-84.5463515959141176
 20
58.4374521838876433
 30
0.0
 40
10.0
100
AcDbArc
 50
165.2153845133829861
 51
282.2920503786410791
  0
ARC
  5
97
100
AcDbEntity
  8
outerBoundaries
 62
256
370
-1
 48
1.0
  6
BYLAYER
100
AcDbCircle
 10
-66.4753569371796686
 20
126.9078585214822965
 30
0.0
 40
10.0
100
AcDbArc
 50
117.5444980621586097
 51
165.2153845133829861
  0
ARC
  5
98
100
AcDbEntity
  8
outerBoundaries
 62
256
370
-1
 48
1.0
  6
BYLAYER
100
AcDbCircle
 10
136.3753569371793901
 20
126.9078585214817423
 30
0.0
 40
10.0
100
AcDbArc
 50
14.7846154866171187
 51
62.4555019378407721
  0
ARC
  5
99
100
AcDbEntity
  8
outerBoundaries
 62
256
370
-1
 48
1.0
  6
BYLAYER
100
AcDbCircle
 10
1.3860590307359808
 20
-0.792070083931973
 30
0.0
 40
10.0
100
AcDbArc
 50
188.554292535764489
 51
270.0
  0
ARC
  5
9A
100
AcDbEntity
  8
outerBoundaries
 62
256
370
-1
 48
1.0
  6
BYLAYER
100
AcDbCircle
 10
68.5139409692640271
 20
-0.7920700839319947
 30
0.0
 40
10.0
100
AcDbArc
 50
270.0
 51
351.4457074642352836
  0
LINE
  5
9B
100
AcDbEntity
100
AcDbLine
  8
key cutouts
 62
256
370
-1
 48
1.0
  6
BYLAYER
 10
69.9000000000000057
 20
115.5
 30
0.0
 11
82.2712705100189652
 21
118.5845041688957622
 31
0.0
  0
LINE
  5
9C
100
AcDbEntity
100
AcDbLine
  8
key cutouts
 62
256
370
-1
 48
1.0
  6
BYLAYER
 10
82.2712705100189652
 20
118.5845041688957622
 30
0.0
 11
86.0210598918138061
 21
103.5449204116178095
 31
0.0
  0
LINE
  5
9D
100
AcDbEntity
100
AcDbLine
  8
key cutouts
 62
256
370
-1
 48
1.0
  6
BYLAYER
 10
86.0210598918138061
 20
103.5449204116178095
 30
0.0
 11
73.6497893817948466
 21
100.4604162427220473
 31
0.0
  0
LINE
  5
9E
100
AcDbEntity
100
AcDbLine
  8
key cutouts
 62
256
370
-1
 48
1.0
  6
BYLAYER
 10
73.6497893817948466
 20
100.4604162427220473
 30
0.0
 11
69.9000000000000057
 21
115.5
 31
0.0
  0
LINE
  5
9F
100
AcDbEntity
100
AcDbLine
  8
key cutouts
 62
256
370
-1
 48
1.0
  6
BYLAYER
 10
105.2957748497176169
 20
131.0241464431413192
 30
0.0
 11
117.6670453597365906
 21
134.1086506120370814
 31
0.0
  0
LINE
  5
A0
100
AcDbEntity
100
AcDbLine
  8
key cutouts
 62
256
370
-1
 48
1.0
  6
BYLAYER
 10
117.6670453597365906
 20
134.1086506120370814
 30
0.0
 11
121.4168347415314315
 21
119.0690668547591002
 31
0.0
  0
LINE
  5
A1
100
AcDbEntity
100
AcDbLine
  8
key cutouts
 62
256
370
-1
 48
1.0
  6
BYLAYER
 10
121.4168347415314315
 20
119.0690668547591002
 30
0.0
 11
109.0455642315124862
 21
115.9845626858633523
 31
0.0
  0
LINE
  5
A2
100
AcDbEntity
100
AcDbLine
  8
key cutouts
 62
256
370
-1
 48
1.0
  6
BYLAYER
 10
109.0455642315124862
 20
115.9845626858633523
 30
0.0
 11
105.2957748497176169
 21
131.0241464431413192
 31
0.0
  0
LINE
  5
A3
100
AcDbEntity
100
AcDbLine
  8
key cutouts
 62
256
370
-1
 48
1.0
  6
BYLAYER
 10
109.892290866111324
 20
112.5885276438973364
 30
0.0
 11
122.2635613761302693
 21
115.6730318127931412
 31
0.0
  0
LINE
  5
A4
100
AcDbEntity
100
AcDbLine
  8
key cutouts
 62
256
370
-1
 48
1.0
  6
BYLAYER
 10
122.2635613761302693
 20
115.6730318127931412
 30
0.0
 11
126.0133507579251102
 21
100.63344805551516
 31
0.0
  0
LINE
  5
A5
100
AcDbEntity
100
AcDbLine
  8
key cutouts
 62
256
370
-1
 48
1.0
  6
BYLAYER
 10
126.0133507579251102
 20
100.63344805551516
 30
0.0
 11
113.6420802479061649
 21
97.5489438866193979
 31
0.0
  0
LINE
  5
A6
100
AcDbEntity
100
AcDbLine
  8
key cutouts
 62
256
370
-1
 48
1.0
  6
BYLAYER
 10
113.6420802479061649
 20
97.5489438866193979
 30
0.0
 11
109.892290866111324
 21
112.5885276438973364
 31
0.0
  0
LINE
  5
A7
100
AcDbEntity
100
AcDbLine
  8
key cutouts
 62
256
370
-1
 48
1.0
  6
BYLAYER
 10
126.860077392523948
 20
97.2374130135492152
 30
0.0
 11
130.6098667743187889
 21
82.1978292562712625
 31
0.0
  0
LINE
  5
A8
100
AcDbEntity
100
AcDbLine
  8
key cutouts
 62
256
370
-1
 48
1.0
  6
BYLAYER
 10
130.6098667743187889
 20
82.1978292562712625
 30
0.0
 11
118.2385962642998436
 21
79.1133250873754861
 31
0.0
  0
LINE
  5
A9
100
AcDbEntity
100
AcDbLine
  8
key cutouts
 62
256
370
-1
 48
1.0
  6
BYLAYER
 10
118.2385962642998436
 20
79.1133250873754861
 30
0.0
 11
114.4888068825050027
 21
94.152908844653453
 31
0.0
  0
LINE
  5
AA
100
AcDbEntity
100
AcDbLine
  8
key cutouts
 62
256
370
-1
 48
1.0
  6
BYLAYER
 10
114.4888068825050027
 20
94.152908844653453
 30
0.0
 11
126.860077392523948
 21
97.2374130135492152
 31
0.0
  0
LINE
  5
AB
100
AcDbEntity
100
AcDbLine
  8
key cutouts
 62
256
370
-1
 48
1.0
  6
BYLAYER
 10
131.4565934089176267
 20
78.8017942143052466
 30
0.0
 11
135.206382790712496
 21
63.7622104570273365
 31
0.0
  0
LINE
  5
AC
100
AcDbEntity
100
AcDbLine
  8
key cutouts
 62
256
370
-1
 48
1.0
  6
BYLAYER
 10
135.206382790712496
 20
63.7622104570273365
 30
0.0
 11
122.8351122806935223
 21
60.6777062881315388
 31
0.0
  0
LINE
  5
AD
100
AcDbEntity
100
AcDbLine
  8
key cutouts
 62
256
370
-1
 48
1.0
  6
BYLAYER
 10
122.8351122806935223
 20
60.6777062881315388
 30
0.0
 11
119.085322898898653
 21
75.7172900454094702
 31
0.0
  0
LINE
  5
AE
100
AcDbEntity
100
AcDbLine
  8
key cutouts
 62
256
370
-1
 48
1.0
  6
BYLAYER
 10
119.085322898898653
 20
75.7172900454094702
 30
0.0
 11
131.4565934089176267
 21
78.8017942143052466
 31
0.0
  0
LINE
  5
AF
100
AcDbEntity
100
AcDbLine
  8
key cutouts
 62
256
370
-1
 48
1.0
  6
BYLAYER
 10
126.199127391272043
 20
125.9298012915549947
 30
0.0
 11
138.5703979012909883
 21
129.0143054604507995
 31
0.0
  0
LINE
  5
B0
100
AcDbEntity
100
AcDbLine
  8
key cutouts
 62
256
370
-1
 48
1.0
  6
BYLAYER
 10
138.5703979012909883
 20
129.0143054604507995
 30
0.0
 11
142.3201872830858576
 21
113.9747217031728184
 31
0.0
  0
LINE
  5
B1
100
AcDbEntity
100
AcDbLine
  8
key cutouts
 62
256
370
-1
 48
1.0
  6
BYLAYER
 10
142.3201872830858576
 20
113.9747217031728184
 30
0.0
 11
129.9489167730668839
 21
110.890217534277042
 31
0.0
  0
LINE
  5
B2
100
AcDbEntity
100
AcDbLine
  8
key cutouts
 62
256
370
-1
 48
1.0
  6
BYLAYER
 10
129.9489167730668839
 20
110.890217534277042
 30
0.0
 11
126.199127391272043
 21
125.9298012915549947
 31
0.0
  0
LINE
  5
B3
100
AcDbEntity
100
AcDbLine
  8
key cutouts
 62
256
370
-1
 48
1.0
  6
BYLAYER
 10
130.7956434076657217
 20
107.4941824923110829
 30
0.0
 11
143.1669139176846954
 21
110.5786866612068167
 31
0.0
  0
LINE
  5
B4
100
AcDbEntity
100
AcDbLine
  8
key cutouts
 62
256
370
-1
 48
1.0
  6
BYLAYER
 10
143.1669139176846954
 20
110.5786866612068167
 30
0.0
 11
146.9167032994795363
 21
95.5391029039288782
 31
0.0
  0
LINE
  5
B5
100
AcDbEntity
100
AcDbLine
  8
key cutouts
 62
256
370
-1
 48
1.0
  6
BYLAYER
 10
146.9167032994795363
 20
95.5391029039288782
 30
0.0
 11
134.5454327894605626
 21
92.4545987350331444
 31
0.0
  0
LINE
  5
B6
100
AcDbEntity
100
AcDbLine
  8
key cutouts
 62
256
370
-1
 48
1.0
  6
BYLAYER
 10
134.5454327894605626
 20
92.4545987350331444
 30
0.0
 11
130.7956434076657217
 21
107.4941824923110829
 31
0.0
  0
LINE
  5
B7
100
AcDbEntity
100
AcDbLine
  8
key cutouts
 62
256
370
-1
 48
1.0
  6
BYLAYER
 10
135.3921594240594004
 20
89.0585636930671143
 30
0.0
 11
147.7634299340783741
 21
92.1430678619629191
 31
0.0
  0
LINE
  5
B8
100
AcDbEntity
100
AcDbLine
  8
key cutouts
 62
256
370
-1
 48
1.0
  6
BYLAYER
 10
147.7634299340783741
 20
92.1430678619629191
 30
0.0
 11
151.5132193158731866
 21
77.1034841046849095
 31
0.0
  0
LINE
  5
B9
100
AcDbEntity
100
AcDbLine
  8
key cutouts
 62
256
370
-1
 48
1.0
  6
BYLAYER
 10
151.5132193158731866
 20
77.1034841046849095
 30
0.0
 11
139.1419488058542413
 21
74.0189799357891616
 31
0.0
  0
LINE
  5
BA
100
AcDbEntity
100
AcDbLine
  8
key cutouts
 62
256
370
-1
 48
1.0
  6
BYLAYER
 10
139.1419488058542413
 20
74.0189799357891616
 30
0.0
 11
135.3921594240594004
 21
89.0585636930671143
 31
0.0
  0
LINE
  5
BB
100
AcDbEntity
100
AcDbLine
  8
key cutouts
 62
256
370
-1
 48
1.0
  6
BYLAYER
 10
139.9886754404531075
 20
70.6229448938232167
 30
0.0
 11
152.3599459504720528
 21
73.7074490627189789
 31
0.0
  0
LINE
  5
BC
100
AcDbEntity
100
AcDbLine
  8
key cutouts
 62
256
370
-1
 48
1.0
  6
BYLAYER
 10
152.3599459504720528
 20
73.7074490627189789
 30
0.0
 11
156.1097353322668937
 21
58.667865305441012
 31
0.0
  0
LINE
  5
BD
100
AcDbEntity
100
AcDbLine
  8
key cutouts
 62
256
370
-1
 48
1.0
  6
BYLAYER
 10
156.1097353322668937
 20
58.667865305441012
 30
0.0
 11
143.73846482224792
 21
55.5833611365452214
 31
0.0
  0
LINE
  5
BE
100
AcDbEntity
100
AcDbLine
  8
key cutouts
 62
256
370
-1
 48
1.0
  6
BYLAYER
 10
143.73846482224792
 20
55.5833611365452214
 30
0.0
 11
139.9886754404531075
 21
70.6229448938232167
 31
0.0
  0
LINE
  5
BF
100
AcDbEntity
100
AcDbLine
  8
key cutouts
 62
256
370
-1
 48
1.0
  6
BYLAYER
 10
74.4965160163936844
 20
97.0643812007560598
 30
0.0
 11
86.8677865264126297
 21
100.148885369651822
 31
0.0
  0
LINE
  5
C0
100
AcDbEntity
100
AcDbLine
  8
key cutouts
 62
256
370
-1
 48
1.0
  6
BYLAYER
 10
86.8677865264126297
 20
100.148885369651822
 30
0.0
 11
90.617575908207499
 21
85.1093016123738977
 31
0.0
  0
LINE
  5
C1
100
AcDbEntity
100
AcDbLine
  8
key cutouts
 62
256
370
-1
 48
1.0
  6
BYLAYER
 10
90.617575908207499
 20
85.1093016123738977
 30
0.0
 11
78.2463053981885253
 21
82.0247974434781213
 31
0.0
  0
LINE
  5
C2
100
AcDbEntity
100
AcDbLine
  8
key cutouts
 62
256
370
-1
 48
1.0
  6
BYLAYER
 10
78.2463053981885253
 20
82.0247974434781213
 30
0.0
 11
74.4965160163936844
 21
97.0643812007560598
 31
0.0
  0
LINE
  5
C3
100
AcDbEntity
100
AcDbLine
  8
key cutouts
 62
256
370
-1
 48
1.0
  6
BYLAYER
 10
91.4643025428063225
 20
81.713266570407896
 30
0.0
 11
95.2140919246011492
 21
66.6736828131299291
 31
0.0
  0
LINE
  5
C4
100
AcDbEntity
100
AcDbLine
  8
key cutouts
 62
256
370
-1
 48
1.0
  6
BYLAYER
 10
95.2140919246011492
 20
66.6736828131299291
 30
0.0
 11
82.8428214145822182
 21
63.5891786442341811
 31
0.0
  0
LINE
  5
C5
100
AcDbEntity
100
AcDbLine
  8
key cutouts
 62
256
370
-1
 48
1.0
  6
BYLAYER
 10
82.8428214145822182
 20
63.5891786442341811
 30
0.0
 11
79.0930320327873631
 21
78.6287624015121196
 31
0.0
  0
LINE
  5
C6
100
AcDbEntity
100
AcDbLine
  8
key cutouts
 62
256
370
-1
 48
1.0
  6
BYLAYER
 10
79.0930320327873631
 20
78.6287624015121196
 30
0.0
 11
91.4643025428063225
 21
81.713266570407896
 31
0.0
  0
LINE
  5
C7
100
AcDbEntity
100
AcDbLine
  8
key cutouts
 62
256
370
-1
 48
1.0
  6
BYLAYER
 10
96.060818559199987
 20
63.2776477711639487
 30
0.0
 11
99.8106079409948279
 21
48.2380640138860031
 31
0.0
  0
LINE
  5
C8
100
AcDbEntity
100
AcDbLine
  8
key cutouts
 62
256
370
-1
 48
1.0
  6
BYLAYER
 10
99.8106079409948279
 20
48.2380640138860031
 30
0.0
 11
87.4393374309758968
 21
45.1535598449902409
 31
0.0
  0
LINE
  5
C9
100
AcDbEntity
100
AcDbLine
  8
key cutouts
 62
256
370
-1
 48
1.0
  6
BYLAYER
 10
87.4393374309758968
 20
45.1535598449902409
 30
0.0
 11
83.6895480491810559
 21
60.1931436022681936
 31
0.0
  0
LINE
  5
CA
100
AcDbEntity
100
AcDbLine
  8
key cutouts
 62
256
370
-1
 48
1.0
  6
BYLAYER
 10
83.6895480491810559
 20
60.1931436022681936
 30
0.0
 11
96.060818559199987
 21
63.2776477711639487
 31
0.0
  0
LINE
  5
CB
100
AcDbEntity
100
AcDbLine
  8
key cutouts
 62
256
370
-1
 48
1.0
  6
BYLAYER
 10
85.9649146295610507
 20
129.8115693739336507
 30
0.0
 11
89.7147040113559058
 21
114.7719856166556838
 31
0.0
  0
LINE
  5
CC
100
AcDbEntity
100
AcDbLine
  8
key cutouts
 62
256
370
-1
 48
1.0
  6
BYLAYER
 10
89.7147040113559058
 20
114.7719856166556838
 30
0.0
 11
102.0859745213748511
 21
117.8564897855514175
 31
0.0
  0
LINE
  5
CD
100
AcDbEntity
100
AcDbLine
  8
key cutouts
 62
256
370
-1
 48
1.0
  6
BYLAYER
 10
102.0859745213748511
 20
117.8564897855514175
 30
0.0
 11
98.336185139579996
 21
132.8960735428293845
 31
0.0
  0
LINE
  5
CE
100
AcDbEntity
100
AcDbLine
  8
key cutouts
 62
256
370
-1
 48
1.0
  6
BYLAYER
 10
98.336185139579996
 20
132.8960735428293845
 30
0.0
 11
85.9649146295610507
 21
129.8115693739336507
 31
0.0
  0
LINE
  5
CF
100
AcDbEntity
100
AcDbLine
  8
key cutouts
 62
256
370
-1
 48
1.0
  6
BYLAYER
 10
90.5614306459547436
 20
111.3759505746896821
 30
0.0
 11
102.9327011559736889
 21
114.4604547435854442
 31
0.0
  0
LINE
  5
D0
100
AcDbEntity
100
AcDbLine
  8
key cutouts
 62
256
370
-1
 48
1.0
  6
BYLAYER
 10
102.9327011559736889
 20
114.4604547435854442
 30
0.0
 11
106.6824905377685297
 21
99.42087098630752
 31
0.0
  0
LINE
  5
D1
100
AcDbEntity
100
AcDbLine
  8
key cutouts
 62
256
370
-1
 48
1.0
  6
BYLAYER
 10
106.6824905377685297
 20
99.42087098630752
 30
0.0
 11
94.3112200277495845
 21
96.3363668174117436
 31
0.0
  0
LINE
  5
D2
100
AcDbEntity
100
AcDbLine
  8
key cutouts
 62
256
370
-1
 48
1.0
  6
BYLAYER
 10
94.3112200277495845
 20
96.3363668174117436
 30
0.0
 11
90.5614306459547436
 21
111.3759505746896821
 31
0.0
  0
LINE
  5
D3
100
AcDbEntity
100
AcDbLine
  8
key cutouts
 62
256
370
-1
 48
1.0
  6
BYLAYER
 10
95.1579466623484223
 20
92.9403317754457561
 30
0.0
 11
107.5292171723673675
 21
96.0248359443415183
 31
0.0
  0
LINE
  5
D4
100
AcDbEntity
100
AcDbLine
  8
key cutouts
 62
256
370
-1
 48
1.0
  6
BYLAYER
 10
107.5292171723673675
 20
96.0248359443415183
 30
0.0
 11
111.2790065541622084
 21
80.9852521870635371
 31
0.0
  0
LINE
  5
D5
100
AcDbEntity
100
AcDbLine
  8
key cutouts
 62
256
370
-1
 48
1.0
  6
BYLAYER
 10
111.2790065541622084
 20
80.9852521870635371
 30
0.0
 11
98.9077360441432916
 21
77.9007480181678318
 31
0.0
  0
LINE
  5
D6
100
AcDbEntity
100
AcDbLine
  8
key cutouts
 62
256
370
-1
 48
1.0
  6
BYLAYER
 10
98.9077360441432916
 20
77.9007480181678318
 30
0.0
 11
95.1579466623484223
 21
92.9403317754457561
 31
0.0
  0
LINE
  5
D7
100
AcDbEntity
100
AcDbLine
  8
key cutouts
 62
256
370
-1
 48
1.0
  6
BYLAYER
 10
99.7544626787421009
 20
74.5047129762018159
 30
0.0
 11
112.1257331887610462
 21
77.5892171450975923
 31
0.0
  0
LINE
  5
D8
100
AcDbEntity
100
AcDbLine
  8
key cutouts
 62
256
370
-1
 48
1.0
  6
BYLAYER
 10
112.1257331887610462
 20
77.5892171450975923
 30
0.0
 11
115.8755225705558587
 21
62.5496333878196182
 31
0.0
  0
LINE
  5
D9
100
AcDbEntity
100
AcDbLine
  8
key cutouts
 62
256
370
-1
 48
1.0
  6
BYLAYER
 10
115.8755225705558587
 20
62.5496333878196182
 30
0.0
 11
103.5042520605369418
 21
59.4651292189238703
 31
0.0
  0
LINE
  5
DA
100
AcDbEntity
100
AcDbLine
  8
key cutouts
 62
256
370
-1
 48
1.0
  6
BYLAYER
 10
103.5042520605369418
 20
59.4651292189238703
 30
0.0
 11
99.7544626787421009
 21
74.5047129762018159
 31
0.0
  0
LINE
  5
DB
100
AcDbEntity
100
AcDbLine
  8
key cutouts
 62
256
370
-1
 48
1.0
  6
BYLAYER
 10
-61.5565934089176565
 20
78.8017942143052892
 30
0.0
 11
-49.1853228988987041
 21
75.717290045409527
 31
0.0
  0
LINE
  5
DC
100
AcDbEntity
100
AcDbLine
  8
key cutouts
 62
256
370
-1
 48
1.0
  6
BYLAYER
 10
-49.1853228988987041
 20
75.717290045409527
 30
0.0
 11
-52.9351122806935663
 21
60.6777062881315956
 31
0.0
  0
LINE
  5
DD
100
AcDbEntity
100
AcDbLine
  8
key cutouts
 62
256
370
-1
 48
1.0
  6
BYLAYER
 10
-52.9351122806935663
 20
60.6777062881315956
 30
0.0
 11
-65.3063827907124903
 21
63.7622104570273649
 31
0.0
  0
LINE
  5
DE
100
AcDbEntity
100
AcDbLine
  8
key cutouts
 62
256
370
-1
 48
1.0
  6
BYLAYER
 10
-65.3063827907124903
 20
63.7622104570273649
 30
0.0
 11
-61.5565934089176565
 21
78.8017942143052892
 31
0.0
  0
LINE
  5
DF
100
AcDbEntity
100
AcDbLine
  8
key cutouts
 62
256
370
-1
 48
1.0
  6
BYLAYER
 10
-28.4361851395800187
 20
132.8960735428293845
 30
0.0
 11
-16.0649146295610592
 21
129.8115693739336507
 31
0.0
  0
LINE
  5
E0
100
AcDbEntity
100
AcDbLine
  8
key cutouts
 62
256
370
-1
 48
1.0
  6
BYLAYER
 10
-16.0649146295610592
 20
129.8115693739336507
 30
0.0
 11
-19.8147040113559072
 21
114.771985616655698
 31
0.0
  0
LINE
  5
E1
100
AcDbEntity
100
AcDbLine
  8
key cutouts
 62
256
370
-1
 48
1.0
  6
BYLAYER
 10
-19.8147040113559072
 20
114.771985616655698
 30
0.0
 11
-32.1859745213748667
 21
117.8564897855514459
 31
0.0
  0
LINE
  5
E2
100
AcDbEntity
100
AcDbLine
  8
key cutouts
 62
256
370
-1
 48
1.0
  6
BYLAYER
 10
-32.1859745213748667
 20
117.8564897855514459
 30
0.0
 11
-28.4361851395800187
 21
132.8960735428293845
 31
0.0
  0
LINE
  5
E3
100
AcDbEntity
100
AcDbLine
  8
key cutouts
 62
256
370
-1
 48
1.0
  6
BYLAYER
 10
-33.0327011559737045
 20
114.4604547435854727
 30
0.0
 11
-20.661430645954745
 21
111.3759505746897105
 31
0.0
  0
LINE
  5
E4
100
AcDbEntity
100
AcDbLine
  8
key cutouts
 62
256
370
-1
 48
1.0
  6
BYLAYER
 10
-20.661430645954745
 20
111.3759505746897105
 30
0.0
 11
-24.4112200277495859
 21
96.3363668174117578
 31
0.0
  0
LINE
  5
E5
100
AcDbEntity
100
AcDbLine
  8
key cutouts
 62
256
370
-1
 48
1.0
  6
BYLAYER
 10
-24.4112200277495859
 20
96.3363668174117578
 30
0.0
 11
-36.7824905377685525
 21
99.4208709863075342
 31
0.0
  0
LINE
  5
E6
100
AcDbEntity
100
AcDbLine
  8
key cutouts
 62
256
370
-1
 48
1.0
  6
BYLAYER
 10
-36.7824905377685525
 20
99.4208709863075342
 30
0.0
 11
-33.0327011559737045
 21
114.4604547435854727
 31
0.0
  0
LINE
  5
E7
100
AcDbEntity
100
AcDbLine
  8
key cutouts
 62
256
370
-1
 48
1.0
  6
BYLAYER
 10
-25.2579466623484521
 20
92.9403317754457987
 30
0.0
 11
-29.007736044143293
 21
77.9007480181678318
 31
0.0
  0
LINE
  5
E8
100
AcDbEntity
100
AcDbLine
  8
key cutouts
 62
256
370
-1
 48
1.0
  6
BYLAYER
 10
-29.007736044143293
 20
77.9007480181678318
 30
0.0
 11
-41.3790065541622383
 21
80.985252187063594
 31
0.0
  0
LINE
  5
E9
100
AcDbEntity
100
AcDbLine
  8
key cutouts
 62
256
370
-1
 48
1.0
  6
BYLAYER
 10
-41.3790065541622383
 20
80.985252187063594
 30
0.0
 11
-37.6292171723673974
 21
96.0248359443415467
 31
0.0
  0
LINE
  5
EA
100
AcDbEntity
100
AcDbLine
  8
key cutouts
 62
256
370
-1
 48
1.0
  6
BYLAYER
 10
-37.6292171723673974
 20
96.0248359443415467
 30
0.0
 11
-25.2579466623484521
 21
92.9403317754457987
 31
0.0
  0
LINE
  5
EB
100
AcDbEntity
100
AcDbLine
  8
key cutouts
 62
256
370
-1
 48
1.0
  6
BYLAYER
 10
-29.8544626787421379
 20
74.5047129762018585
 30
0.0
 11
-33.6042520605369859
 21
59.4651292189239129
 31
0.0
  0
LINE
  5
EC
100
AcDbEntity
100
AcDbLine
  8
key cutouts
 62
256
370
-1
 48
1.0
  6
BYLAYER
 10
-33.6042520605369859
 20
59.4651292189239129
 30
0.0
 11
-45.9755225705559312
 21
62.5496333878196609
 31
0.0
  0
LINE
  5
ED
100
AcDbEntity
100
AcDbLine
  8
key cutouts
 62
256
370
-1
 48
1.0
  6
BYLAYER
 10
-45.9755225705559312
 20
62.5496333878196609
 30
0.0
 11
-42.225733188761069
 21
77.5892171450975923
 31
0.0
  0
LINE
  5
EE
100
AcDbEntity
100
AcDbLine
  8
key cutouts
 62
256
370
-1
 48
1.0
  6
BYLAYER
 10
-42.225733188761069
 20
77.5892171450975923
 30
0.0
 11
-29.8544626787421379
 21
74.5047129762018585
 31
0.0
  0
LINE
  5
EF
100
AcDbEntity
100
AcDbLine
  8
key cutouts
 62
256
370
-1
 48
1.0
  6
BYLAYER
 10
-12.3712705100189453
 20
118.5845041688957622
 30
0.0
 11
0.0000000000000071
 21
115.5
 31
0.0
  0
LINE
  5
F0
100
AcDbEntity
100
AcDbLine
  8
key cutouts
 62
256
370
-1
 48
1.0
  6
BYLAYER
 10
0.0000000000000071
 20
115.5
 30
0.0
 11
-3.7497893817948444
 21
100.4604162427220615
 31
0.0
  0
LINE
  5
F1
100
AcDbEntity
100
AcDbLine
  8
key cutouts
 62
256
370
-1
 48
1.0
  6
BYLAYER
 10
-3.7497893817948444
 20
100.4604162427220615
 30
0.0
 11
-16.1210598918137933
 21
103.5449204116178095
 31
0.0
  0
LINE
  5
F2
100
AcDbEntity
100
AcDbLine
  8
key cutouts
 62
256
370
-1
 48
1.0
  6
BYLAYER
 10
-16.1210598918137933
 20
103.5449204116178095
 30
0.0
 11
-12.3712705100189453
 21
118.5845041688957622
 31
0.0
  0
LINE
  5
F3
100
AcDbEntity
100
AcDbLine
  8
key cutouts
 62
256
370
-1
 48
1.0
  6
BYLAYER
 10
-4.5965160163936787
 20
97.0643812007560598
 30
0.0
 11
-8.3463053981885338
 21
82.0247974434781213
 31
0.0
  0
LINE
  5
F4
100
AcDbEntity
100
AcDbLine
  8
key cutouts
 62
256
370
-1
 48
1.0
  6
BYLAYER
 10
-8.3463053981885338
 20
82.0247974434781213
 30
0.0
 11
-20.7175759082075004
 21
85.1093016123738977
 31
0.0
  0
LINE
  5
F5
100
AcDbEntity
100
AcDbLine
  8
key cutouts
 62
256
370
-1
 48
1.0
  6
BYLAYER
 10
-20.7175759082075004
 20
85.1093016123738977
 30
0.0
 11
-16.9677865264126311
 21
100.148885369651822
 31
0.0
  0
LINE
  5
F6
100
AcDbEntity
100
AcDbLine
  8
key cutouts
 62
256
370
-1
 48
1.0
  6
BYLAYER
 10
-16.9677865264126311
 20
100.148885369651822
 30
0.0
 11
-4.5965160163936787
 21
97.0643812007560598
 31
0.0
  0
LINE
  5
F7
100
AcDbEntity
100
AcDbLine
  8
key cutouts
 62
256
370
-1
 48
1.0
  6
BYLAYER
 10
-9.193032032787368
 20
78.6287624015121338
 30
0.0
 11
-12.9428214145822196
 21
63.5891786442341882
 31
0.0
  0
LINE
  5
F8
100
AcDbEntity
100
AcDbLine
  8
key cutouts
 62
256
370
-1
 48
1.0
  6
BYLAYER
 10
-12.9428214145822196
 20
63.5891786442341882
 30
0.0
 11
-25.3140919246011933
 21
66.6736828131299717
 31
0.0
  0
LINE
  5
F9
100
AcDbEntity
100
AcDbLine
  8
key cutouts
 62
256
370
-1
 48
1.0
  6
BYLAYER
 10
-25.3140919246011933
 20
66.6736828131299717
 30
0.0
 11
-21.564302542806324
 21
81.7132665704079102
 31
0.0
  0
LINE
  5
FA
100
AcDbEntity
100
AcDbLine
  8
key cutouts
 62
256
370
-1
 48
1.0
  6
BYLAYER
 10
-21.564302542806324
 20
81.7132665704079102
 30
0.0
 11
-9.193032032787368
 21
78.6287624015121338
 31
0.0
  0
LINE
  5
FB
100
AcDbEntity
100
AcDbLine
  8
key cutouts
 62
256
370
-1
 48
1.0
  6
BYLAYER
 10
-26.1608185592000027
 20
63.2776477711639629
 30
0.0
 11
-13.7895480491810574
 21
60.1931436022682007
 31
0.0
  0
LINE
  5
FC
100
AcDbEntity
100
AcDbLine
  8
key cutouts
 62
256
370
-1
 48
1.0
  6
BYLAYER
 10
-13.7895480491810574
 20
60.1931436022682007
 30
0.0
 11
-17.5393374309759125
 21
45.1535598449902551
 31
0.0
  0
LINE
  5
FD
100
AcDbEntity
100
AcDbLine
  8
key cutouts
 62
256
370
-1
 48
1.0
  6
BYLAYER
 10
-17.5393374309759125
 20
45.1535598449902551
 30
0.0
 11
-29.9106079409948435
 21
48.2380640138860031
 31
0.0
  0
LINE
  5
FE
100
AcDbEntity
100
AcDbLine
  8
key cutouts
 62
256
370
-1
 48
1.0
  6
BYLAYER
 10
-29.9106079409948435
 20
48.2380640138860031
 30
0.0
 11
-26.1608185592000027
 21
63.2776477711639629
 31
0.0
  0
LINE
  5
FF
100
AcDbEntity
100
AcDbLine
  8
key cutouts
 62
256
370
-1
 48
1.0
  6
BYLAYER
 10
-68.6703979012909826
 20
129.0143054604508279
 30
0.0
 11
-56.2991273912720303
 21
125.9298012915550089
 31
0.0
  0
LINE
  5
100
100
AcDbEntity
100
AcDbLine
  8
key cutouts
 62
256
370
-1
 48
1.0
  6
BYLAYER
 10
-56.2991273912720303
 20
125.9298012915550089
 30
0.0
 11
-60.0489167730668711
 21
110.8902175342770846
 31
0.0
  0
LINE
  5
101
100
AcDbEntity
100
AcDbLine
  8
key cutouts
 62
256
370
-1
 48
1.0
  6
BYLAYER
 10
-60.0489167730668711
 20
110.8902175342770846
 30
0.0
 11
-72.420187283085852
 21
113.9747217031728468
 31
0.0
  0
LINE
  5
102
100
AcDbEntity
100
AcDbLine
  8
key cutouts
 62
256
370
-1
 48
1.0
  6
BYLAYER
 10
-72.420187283085852
 20
113.9747217031728468
 30
0.0
 11
-68.6703979012909826
 21
129.0143054604508279
 31
0.0
  0
LINE
  5
103
100
AcDbEntity
100
AcDbLine
  8
key cutouts
 62
256
370
-1
 48
1.0
  6
BYLAYER
 10
-68.6703979012909826
 20
129.0143054604508279
 30
0.0
 11
-68.6703979012909826
 21
129.0143054604508279
 31
0.0
  0
LINE
  5
104
100
AcDbEntity
100
AcDbLine
  8
key cutouts
 62
256
370
-1
 48
1.0
  6
BYLAYER
 10
-73.2669139176846897
 20
110.5786866612068735
 30
0.0
 11
-60.8956434076657231
 21
107.4941824923111113
 31
0.0
  0
LINE
  5
105
100
AcDbEntity
100
AcDbLine
  8
key cutouts
 62
256
370
-1
 48
1.0
  6
BYLAYER
 10
-60.8956434076657231
 20
107.4941824923111113
 30
0.0
 11
-64.6454327894605854
 21
92.4545987350331728
 31
0.0
  0
LINE
  5
106
100
AcDbEntity
100
AcDbLine
  8
key cutouts
 62
256
370
-1
 48
1.0
  6
BYLAYER
 10
-64.6454327894605854
 20
92.4545987350331728
 30
0.0
 11
-77.0167032994795306
 21
95.5391029039289492
 31
0.0
  0
LINE
  5
107
100
AcDbEntity
100
AcDbLine
  8
key cutouts
 62
256
370
-1
 48
1.0
  6
BYLAYER
 10
-77.0167032994795306
 20
95.5391029039289492
 30
0.0
 11
-73.2669139176846897
 21
110.5786866612068735
 31
0.0
  0
LINE
  5
108
100
AcDbEntity
100
AcDbLine
  8
key cutouts
 62
256
370
-1
 48
1.0
  6
BYLAYER
 10
-77.8634299340783684
 20
92.1430678619629191
 30
0.0
 11
-65.4921594240594231
 21
89.0585636930671569
 31
0.0
  0
LINE
  5
109
100
AcDbEntity
100
AcDbLine
  8
key cutouts
 62
256
370
-1
 48
1.0
  6
BYLAYER
 10
-65.4921594240594231
 20
89.0585636930671569
 30
0.0
 11
-69.241948805854264
 21
74.0189799357892184
 31
0.0
  0
LINE
  5
10A
100
AcDbEntity
100
AcDbLine
  8
key cutouts
 62
256
370
-1
 48
1.0
  6
BYLAYER
 10
-69.241948805854264
 20
74.0189799357892184
 30
0.0
 11
-81.6132193158732093
 21
77.1034841046849806
 31
0.0
  0
LINE
  5
10B
100
AcDbEntity
100
AcDbLine
  8
key cutouts
 62
256
370
-1
 48
1.0
  6
BYLAYER
 10
-81.6132193158732093
 20
77.1034841046849806
 30
0.0
 11
-77.8634299340783684
 21
92.1430678619629191
 31
0.0
  0
LINE
  5
10C
100
AcDbEntity
100
AcDbLine
  8
key cutouts
 62
256
370
-1
 48
1.0
  6
BYLAYER
 10
-82.4599459504720755
 20
73.7074490627190073
 30
0.0
 11
-70.0886754404531018
 21
70.6229448938232451
 31
0.0
  0
LINE
  5
10D
100
AcDbEntity
100
AcDbLine
  8
key cutouts
 62
256
370
-1
 48
1.0
  6
BYLAYER
 10
-70.0886754404531018
 20
70.6229448938232451
 30
0.0
 11
-73.8384648222479143
 21
55.5833611365452498
 31
0.0
  0
LINE
  5
10E
100
AcDbEntity
100
AcDbLine
  8
key cutouts
 62
256
370
-1
 48
1.0
  6
BYLAYER
 10
-73.8384648222479143
 20
55.5833611365452498
 30
0.0
 11
-86.2097353322669164
 21
58.6678653054410404
 31
0.0
  0
LINE
  5
10F
100
AcDbEntity
100
AcDbLine
  8
key cutouts
 62
256
370
-1
 48
1.0
  6
BYLAYER
 10
-86.2097353322669164
 20
58.6678653054410404
 30
0.0
 11
-82.4599459504720755
 21
73.7074490627190073
 31
0.0
  0
LINE
  5
110
100
AcDbEntity
100
AcDbLine
  8
key cutouts
 62
256
370
-1
 48
1.0
  6
BYLAYER
 10
-47.7670453597365849
 20
134.1086506120370814
 30
0.0
 11
-35.3957748497176325
 21
131.0241464431413476
 31
0.0
  0
LINE
  5
111
100
AcDbEntity
100
AcDbLine
  8
key cutouts
 62
256
370
-1
 48
1.0
  6
BYLAYER
 10
-35.3957748497176325
 20
131.0241464431413476
 30
0.0
 11
-39.1455642315124877
 21
115.9845626858633949
 31
0.0
  0
LINE
  5
112
100
AcDbEntity
100
AcDbLine
  8
key cutouts
 62
256
370
-1
 48
1.0
  6
BYLAYER
 10
-39.1455642315124877
 20
115.9845626858633949
 30
0.0
 11
-51.5168347415314187
 21
119.0690668547591713
 31
0.0
  0
LINE
  5
113
100
AcDbEntity
100
AcDbLine
  8
key cutouts
 62
256
370
-1
 48
1.0
  6
BYLAYER
 10
-51.5168347415314187
 20
119.0690668547591713
 30
0.0
 11
-47.7670453597365849
 21
134.1086506120370814
 31
0.0
  0
LINE
  5
114
100
AcDbEntity
100
AcDbLine
  8
key cutouts
 62
256
370
-1
 48
1.0
  6
BYLAYER
 10
-52.3635613761302707
 20
115.6730318127931838
 30
0.0
 11
-39.9922908661113254
 21
112.5885276438974074
 31
0.0
  0
LINE
  5
115
100
AcDbEntity
100
AcDbLine
  8
key cutouts
 62
256
370
-1
 48
1.0
  6
BYLAYER
 10
-39.9922908661113254
 20
112.5885276438974074
 30
0.0
 11
-43.7420802479061734
 21
97.5489438866194547
 31
0.0
  0
LINE
  5
116
100
AcDbEntity
100
AcDbLine
  8
key cutouts
 62
256
370
-1
 48
1.0
  6
BYLAYER
 10
-43.7420802479061734
 20
97.5489438866194547
 30
0.0
 11
-56.1133507579251258
 21
100.6334480555152311
 31
0.0
  0
LINE
  5
117
100
AcDbEntity
100
AcDbLine
  8
key cutouts
 62
256
370
-1
 48
1.0
  6
BYLAYER
 10
-56.1133507579251258
 20
100.6334480555152311
 30
0.0
 11
-52.3635613761302707
 21
115.6730318127931838
 31
0.0
  0
LINE
  5
118
100
AcDbEntity
100
AcDbLine
  8
key cutouts
 62
256
370
-1
 48
1.0
  6
BYLAYER
 10
-56.9600773925239636
 20
97.2374130135492294
 30
0.0
 11
-44.5888068825050112
 21
94.1529088446534672
 31
0.0
  0
LINE
  5
119
100
AcDbEntity
100
AcDbLine
  8
key cutouts
 62
256
370
-1
 48
1.0
  6
BYLAYER
 10
-44.5888068825050112
 20
94.1529088446534672
 30
0.0
 11
-48.3385962642998805
 21
79.1133250873755429
 31
0.0
  0
LINE
  5
11A
100
AcDbEntity
100
AcDbLine
  8
key cutouts
 62
256
370
-1
 48
1.0
  6
BYLAYER
 10
-48.3385962642998805
 20
79.1133250873755429
 30
0.0
 11
-60.7098667743188045
 21
82.1978292562712767
 31
0.0
  0
LINE
  5
11B
100
AcDbEntity
100
AcDbLine
  8
key cutouts
 62
256
370
-1
 48
1.0
  6
BYLAYER
 10
-60.7098667743188045
 20
82.1978292562712767
 30
0.0
 11
-56.9600773925239636
 21
97.2374130135492294
 31
0.0
  0
ENDSEC
  0
SECTION
  2
OBJECTS
  0
DICTIONARY
  5
C
100
AcDbDictionary
280
0
281
1
  3
ACAD_GROUP
350
D
  3
ACAD_LAYOUT
350
1A
  3
ACAD_MLINESTYLE
350
17
  3
ACAD_PLOTSETTINGS
350
19
  3
ACAD_PLOTSTYLENAME
350
E
  3
AcDbVariableDictionary
350
11C
  3
QCAD_OBJECTS
350
11D
  0
DICTIONARY
  5
D
100
AcDbDictionary
280
0
281
1
  0
ACDBDICTIONARYWDFLT
  5
E
100
AcDbDictionary
281
1
  3
Normal
350
F
100
AcDbDictionaryWithDefault
340
F
  0
ACDBPLACEHOLDER
  5
F
  0
DICTIONARY
  5
17
100
AcDbDictionary
280
0
281
1
  3
Standard
350
18
  0
MLINESTYLE
  5
18
100
AcDbMlineStyle
  2
STANDARD
 70
0
  3

 62
256
 51
90.0
 52
90.0
 71
2
 49
0.5
 62
256
  6
BYLAYER
 49
-0.5
 62
256
  6
BYLAYER
  0
DICTIONARY
  5
19
100
AcDbDictionary
280
0
281
1
  0
DICTIONARY
  5
1A
100
AcDbDictionary
281
1
  3
Layout1
350
1E
  3
Layout2
350
26
  3
Model
350
22
  0
LAYOUT
  5
1E
100
AcDbPlotSettings
  1

  2
none_device
  4

  6

 40
0.0
 41
0.0
 42
0.0
 43
0.0
 44
0.0
 45
0.0
 46
0.0
 47
0.0
 48
0.0
 49
0.0
140
0.0
141
0.0
142
1.0
143
1.0
 70
688
 72
0
 73
0
 74
5
  7

 75
16
147
1.0
148
0.0
149
0.0
100
AcDbLayout
  1
Layout1
 70
1
 71
1
 10
0.0
 20
0.0
 11
420.0
 21
297.0
 12
0.0
 22
0.0
 32
0.0
 14
100000000000000000000.0
 24
100000000000000000000.0
 34
100000000000000000000.0
 15
-100000000000000000000.0
 25
-100000000000000000000.0
 35
-100000000000000000000.0
146
0.0
 13
0.0
 23
0.0
 33
0.0
 16
1.0
 26
0.0
 36
0.0
 17
0.0
 27
1.0
 37
0.0
 76
0
330
1B
  0
LAYOUT
  5
22
100
AcDbPlotSettings
  1

  2
none_device
  4

  6

 40
0.0
 41
0.0
 42
0.0
 43
0.0
 44
0.0
 45
0.0
 46
0.0
 47
0.0
 48
0.0
 49
0.0
140
0.0
141
0.0
142
1.0
143
1.0
 70
1712
 72
0
 73
0
 74
0
  7

 75
0
147
1.0
148
0.0
149
0.0
100
AcDbLayout
  1
Model
 70
1
 71
0
 10
0.0
 20
0.0
 11
12.0
 21
9.0
 12
0.0
 22
0.0
 32
0.0
 14
0.0
 24
0.0
 34
0.0
 15
0.0
 25
0.0
 35
0.0
146
0.0
 13
0.0
 23
0.0
 33
0.0
 16
1.0
 26
0.0
 36
0.0
 17
0.0
 27
1.0
 37
0.0
 76
0
330
1F
  0
LAYOUT
  5
26
100
AcDbPlotSettings
  1

  2
none_device
  4

  6

 40
0.0
 41
0.0
 42
0.0
 43
0.0
 44
0.0
 45
0.0
 46
0.0
 47
0.0
 48
0.0
 49
0.0
140
0.0
141
0.0
142
1.0
143
1.0
 70
688
 72
0
 73
0
 74
5
  7

 75
16
147
1.0
148
0.0
149
0.0
100
AcDbLayout
  1
Layout2
 70
1
 71
2
 10
0.0
 20
0.0
 11
12.0
 21
9.0
 12
0.0
 22
0.0
 32
0.0
 14
0.0
 24
0.0
 34
0.0
 15
0.0
 25
0.0
 35
0.0
146
0.0
 13
0.0
 23
0.0
 33
0.0
 16
1.0
 26
0.0
 36
0.0
 17
0.0
 27
1.0
 37
0.0
 76
0
330
23
  0
DICTIONARY
  5
11C
100
AcDbDictionary
281
1
  3
DIMASSOC
350
11F
  3
HIDETEXT
350
11E
  0
DICTIONARYVAR
  5
11E
100
DictionaryVariables
280
0
  1
2
  0
DICTIONARYVAR
  5
11F
100
DictionaryVariables
280
0
  1
1
  0
DICTIONARY
  5
11D
100
AcDbDictionary
281
1
  3
ColorSettings/BackgroundColor
350
120
  3
ColorSettings/ColorMode
350
121
  3
Grid/DisplayGrid00
350
122
  3
Grid/DisplayGrid01
350
123
  3
Grid/DisplayGrid02
350
124
  3
Grid/DisplayGrid03
350
125
  3
Grid/GridSpacingX00
350
126
  3
Grid/GridSpacingX01
350
127
  3
Grid/GridSpacingX02
350
128
  3
Grid/GridSpacingX03
350
129
  3
Grid/GridSpacingY00
350
12A
  3
Grid/GridSpacingY01
350
12B
  3
Grid/GridSpacingY02
350
12C
  3
Grid/GridSpacingY03
350
12D
  3
Grid/IsometricGrid00
350
12E
  3
Grid/IsometricGrid01
350
12F
  3
Grid/IsometricGrid02
350
130
  3
Grid/IsometricGrid03
350
131
  3
Grid/IsometricProjection00
350
132
  3
Grid/IsometricProjection01
350
133
  3
Grid/IsometricProjection02
350
134
  3
Grid/IsometricProjection03
350
135
  3
Grid/MetaGridSpacingX00
350
136
  3
Grid/MetaGridSpacingX01
350
137
  3
Grid/MetaGridSpacingX02
350
138
  3
Grid/MetaGridSpacingX03
350
139
  3
Grid/MetaGridSpacingY00
350
13A
  3
Grid/MetaGridSpacingY01
350
13B
  3
Grid/MetaGridSpacingY02
350
13C
  3
Grid/MetaGridSpacingY03
350
13D
  3
MultiPageSettings/Columns
350
13E
  3
MultiPageSettings/GlueMarginsBottom
350
13F
  3
MultiPageSettings/GlueMarginsLeft
350
140
  3
MultiPageSettings/GlueMarginsRight
350
141
  3
MultiPageSettings/GlueMarginsTop
350
142
  3
MultiPageSettings/PrintCropMarks
350
143
  3
MultiPageSettings/Rows
350
144
  3
PageSettings/OffsetX
350
145
  3
PageSettings/OffsetY
350
146
  3
PageSettings/PageOrientation
350
147
  3
PageSettings/PaperHeight
350
148
  3
PageSettings/PaperWidth
350
149
  3
PageSettings/Scale
350
14A
  3
PageSettings/ShowPaperBorders
350
14B
  3
UnitSettings/PaperUnit
350
14C
  0
XRECORD
  5
120
330
11D
100
AcDbXrecord
280
1
1000
White
  0
XRECORD
  5
121
330
11D
100
AcDbXrecord
280
1
1000
FullColor
  0
XRECORD
  5
122
330
11D
100
AcDbXrecord
280
1
290
0
  0
XRECORD
  5
123
330
11D
100
AcDbXrecord
280
1
290
1
  0
XRECORD
  5
124
330
11D
100
AcDbXrecord
280
1
290
1
  0
XRECORD
  5
125
330
11D
100
AcDbXrecord
280
1
290
1
  0
XRECORD
  5
126
330
11D
100
AcDbXrecord
280
1
1000
auto
  0
XRECORD
  5
127
330
11D
100
AcDbXrecord
280
1
1000
auto
  0
XRECORD
  5
128
330
11D
100
AcDbXrecord
280
1
1000
auto
  0
XRECORD
  5
129
330
11D
100
AcDbXrecord
280
1
1000
auto
  0
XRECORD
  5
12A
330
11D
100
AcDbXrecord
280
1
1000
auto
  0
XRECORD
  5
12B
330
11D
100
AcDbXrecord
280
1
1000
auto
  0
XRECORD
  5
12C
330
11D
100
AcDbXrecord
280
1
1000
auto
  0
XRECORD
  5
12D
330
11D
100
AcDbXrecord
280
1
1000
auto
  0
XRECORD
  5
12E
330
11D
100
AcDbXrecord
280
1
290
0
  0
XRECORD
  5
12F
330
11D
100
AcDbXrecord
280
1
290
0
  0
XRECORD
  5
130
330
11D
100
AcDbXrecord
280
1
290
0
  0
XRECORD
  5
131
330
11D
100
AcDbXrecord
280
1
290
0
  0
XRECORD
  5
132
330
11D
100
AcDbXrecord
280
1
 90
0
  0
XRECORD
  5
133
330
11D
100
AcDbXrecord
280
1
 90
0
  0
XRECORD
  5
134
330
11D
100
AcDbXrecord
280
1
 90
0
  0
XRECORD
  5
135
330
11D
100
AcDbXrecord
280
1
 90
0
  0
XRECORD
  5
136
330
11D
100
AcDbXrecord
280
1
1000
auto
  0
XRECORD
  5
137
330
11D
100
AcDbXrecord
280
1
1000
auto
  0
XRECORD
  5
138
330
11D
100
AcDbXrecord
280
1
1000
auto
  0
XRECORD
  5
139
330
11D
100
AcDbXrecord
280
1
1000
auto
  0
XRECORD
  5
13A
330
11D
100
AcDbXrecord
280
1
1000
auto
  0
XRECORD
  5
13B
330
11D
100
AcDbXrecord
280
1
1000
auto
  0
XRECORD
  5
13C
330
11D
100
AcDbXrecord
280
1
1000
auto
  0
XRECORD
  5
13D
330
11D
100
AcDbXrecord
280
1
1000
auto
  0
XRECORD
  5
13E
330
11D
100
AcDbXrecord
280
1
 90
1
  0
XRECORD
  5
13F
330
11D
100
AcDbXrecord
280
1
 40
10.0
  0
XRECORD
  5
140
330
11D
100
AcDbXrecord
280
1
 40
10.0
  0
XRECORD
  5
141
330
11D
100
AcDbXrecord
280
1
 40
10.0
  0
XRECORD
  5
142
330
11D
100
AcDbXrecord
280
1
 40
10.0
  0
XRECORD
  5
143
330
11D
100
AcDbXrecord
280
1
290
0
  0
XRECORD
  5
144
330
11D
100
AcDbXrecord
280
1
 90
1
  0
XRECORD
  5
145
330
11D
100
AcDbXrecord
280
1
 40
0.0
  0
XRECORD
  5
146
330
11D
100
AcDbXrecord
280
1
 40
0.0
  0
XRECORD
  5
147
330
11D
100
AcDbXrecord
280
1
1000
Portrait
  0
XRECORD
  5
148
330
11D
100
AcDbXrecord
280
1
 40
420.0
  0
XRECORD
  5
149
330
11D
100
AcDbXrecord
280
1
 40
297.0
  0
XRECORD
  5
14A
330
11D
100
AcDbXrecord
280
1
1000
1:1
  0
XRECORD
  5
14B
330
11D
100
AcDbXrecord
280
1
290
1
  0
XRECORD
  5
14C
330
11D
100
AcDbXrecord
280
1
 90
4
  0
ENDSEC
  0
EOF
