999
dxflib 3.7.5.0
  0
SECTION
  2
HEADER
  9
$ACADVER
  1
AC1015
  9
$HANDSEED
  5
FFFF
  9
$DIMADEC
 70
0
  9
$DIMASZ
 40
2.5
  9
$DIMAUNIT
 70
0
  9
$DIMAZIN
 70
2
  9
$DIMDEC
 70
4
  9
$DIMEXE
 40
1.25
  9
$DIMEXO
 40
0.625
  9
$DIMGAP
 40
0.625
  9
$DIMLUNIT
 70
2
  9
$DIMSCALE
 40
1.0
  9
$DIMTSZ
 40
0.0
  9
$DIMTXT
 40
2.5
  9
$DIMZIN
 70
8
  9
$DWGCODEPAGE
  3
ANSI_1252
  9
$INSUNITS
 70
4
  9
$LTSCALE
 40
1
  0
ENDSEC
  0
SECTION
  2
TABLES
  0
TABLE
  2
VPORT
  5
8
100
AcDbSymbolTable
 70
1
  0
VPORT
  5
30
100
AcDbSymbolTableRecord
100
AcDbViewportTableRecord
  2
*Active
 70
0
 10
0.0
 20
0.0
 11
1.0
 21
1.0
 12
286.3055555555554861
 22
148.5
 13
0.0
 23
0.0
 14
10.0
 24
10.0
 15
10.0
 25
10.0
 16
0.0
 26
0.0
 36
1.0
 17
0.0
 27
0.0
 37
0.0
 40
297.0
 41
1.92798353909465
 42
50.0
 43
0.0
 44
0.0
 50
0.0
 51
0.0
 71
0
 72
100
 73
1
 74
3
 75
1
 76
1
 77
0
 78
0
281
0
 65
1
110
0.0
120
0.0
130
0.0
111
1.0
121
0.0
131
0.0
112
0.0
122
1.0
132
0.0
 79
0
146
0.0
  0
ENDTAB
  0
TABLE
  2
LTYPE
  5
5
100
AcDbSymbolTable
 70
41
  0
LTYPE
  5
16
100
AcDbSymbolTableRecord
100
AcDbLinetypeTableRecord
  2
Continuous
 70
0
  3
Solid line
 72
65
 73
0
 40
0.0
  0
LTYPE
  5
31
100
AcDbSymbolTableRecord
100
AcDbLinetypeTableRecord
  2
ACAD_ISO15W100
 70
0
  3
ISO double-dash triple-dot __ __ . . . __ __ . .
 72
65
 73
10
 40
39.0000000000000071
 49
12.0
 74
0
 49
-3.0
 74
0
 49
12.0
 74
0
 49
-2.9500000000000002
 74
0
 49
0.1
 74
0
 49
-2.9000000000000004
 74
0
 49
0.1
 74
0
 49
-2.9000000000000004
 74
0
 49
0.1
 74
0
 49
-2.9500000000000002
 74
0
  0
LTYPE
  5
32
100
AcDbSymbolTableRecord
100
AcDbLinetypeTableRecord
  2
DIVIDE
 70
0
  3
Divide ____ . . ____ . . ____ . . ____ . . ____
 72
65
 73
6
 40
31.7500000000000036
 49
12.6999999999999993
 74
0
 49
-6.2999999999999998
 74
0
 49
0.1
 74
0
 49
-6.25
 74
0
 49
0.1
 74
0
 49
-6.2999999999999998
 74
0
  0
LTYPE
  5
33
100
AcDbSymbolTableRecord
100
AcDbLinetypeTableRecord
  2
ACAD_ISO10W100
 70
0
  3
ISO dash dot __ . __ . __ . __ . __ . __ . __ . 
 72
65
 73
4
 40
18.0
 49
12.0
 74
0
 49
-2.9500000000000002
 74
0
 49
0.1
 74
0
 49
-2.9500000000000002
 74
0
  0
LTYPE
  5
34
100
AcDbSymbolTableRecord
100
AcDbLinetypeTableRecord
  2
ACAD_ISO04W100
 70
0
  3
ISO long-dash dot ____ . ____ . ____ . ____ . _
 72
65
 73
4
 40
30.0
 49
24.0
 74
0
 49
-2.9500000000000002
 74
0
 49
0.1
 74
0
 49
-2.9500000000000002
 74
0
  0
LTYPE
  5
35
100
AcDbSymbolTableRecord
100
AcDbLinetypeTableRecord
  2
CENTER2
 70
0
  3
Center (.5x) ___ _ ___ _ ___ _ ___ _ ___ _ ___
 72
65
 73
4
 40
28.5750000000000028
 49
19.0500000000000007
 74
0
 49
-3.1749999999999998
 74
0
 49
3.1749999999999998
 74
0
 49
-3.1749999999999998
 74
0
  0
LTYPE
  5
36
100
AcDbSymbolTableRecord
100
AcDbLinetypeTableRecord
  2
ACAD_ISO11W100
 70
0
  3
ISO double-dash dot __ __ . __ __ . __ __ . __ _
 72
65
 73
6
 40
33.0
 49
12.0
 74
0
 49
-3.0
 74
0
 49
12.0
 74
0
 49
-2.9500000000000002
 74
0
 49
0.1
 74
0
 49
-2.9500000000000002
 74
0
  0
LTYPE
  5
37
100
AcDbSymbolTableRecord
100
AcDbLinetypeTableRecord
  2
HIDDEN2
 70
0
  3
Hidden (.5x) _ _ _ _ _ _ _ _ _ _ _ _ _ _ _ _ _ 
 72
65
 73
2
 40
4.7624999999999993
 49
3.1749999999999998
 74
0
 49
-1.5874999999999999
 74
0
  0
LTYPE
  5
38
100
AcDbSymbolTableRecord
100
AcDbLinetypeTableRecord
  2
BORDERX2
 70
0
  3
Border (2x) ____  ____  .  ____  ____  .  ___
 72
65
 73
6
 40
88.8999999999999773
 49
25.3999999999999986
 74
0
 49
-12.6999999999999993
 74
0
 49
25.3999999999999986
 74
0
 49
-12.6499999999999986
 74
0
 49
0.1
 74
0
 49
-12.6499999999999986
 74
0
  0
LTYPE
  5
39
100
AcDbSymbolTableRecord
100
AcDbLinetypeTableRecord
  2
ACAD_ISO05W100
 70
0
  3
ISO long-dash double-dot ____ .. ____ .. ____ . 
 72
65
 73
6
 40
33.0000000000000071
 49
24.0
 74
0
 49
-2.9500000000000002
 74
0
 49
0.1
 74
0
 49
-2.9000000000000004
 74
0
 49
0.1
 74
0
 49
-2.9500000000000002
 74
0
  0
LTYPE
  5
3A
100
AcDbSymbolTableRecord
100
AcDbLinetypeTableRecord
  2
DASHDOTX2
 70
0
  3
Dash dot (2x) ____  .  ____  .  ____  .  ___
 72
65
 73
4
 40
50.7999999999999972
 49
25.3999999999999986
 74
0
 49
-12.6499999999999986
 74
0
 49
0.1
 74
0
 49
-12.6499999999999986
 74
0
  0
LTYPE
  5
3B
100
AcDbSymbolTableRecord
100
AcDbLinetypeTableRecord
  2
HIDDENX2
 70
0
  3
Hidden (2x) ____ ____ ____ ____ ____ ____ ____ 
 72
65
 73
2
 40
19.0499999999999972
 49
12.6999999999999993
 74
0
 49
-6.3499999999999996
 74
0
  0
LTYPE
  5
3C
100
AcDbSymbolTableRecord
100
AcDbLinetypeTableRecord
  2
CENTERX2
 70
0
  3
Center (2x) ________  __  ________  __  _____
 72
65
 73
4
 40
101.6000000000000085
 49
63.5
 74
0
 49
-12.6999999999999993
 74
0
 49
12.6999999999999993
 74
0
 49
-12.6999999999999993
 74
0
  0
LTYPE
  5
3D
100
AcDbSymbolTableRecord
100
AcDbLinetypeTableRecord
  2
BORDER2
 70
0
  3
Border (.5x) __.__.__.__.__.__.__.__.__.__.__.
 72
65
 73
6
 40
22.2250000000000014
 49
6.3499999999999996
 74
0
 49
-3.1749999999999998
 74
0
 49
6.3499999999999996
 74
0
 49
-3.125
 74
0
 49
0.1
 74
0
 49
-3.125
 74
0
  0
LTYPE
  5
3E
100
AcDbSymbolTableRecord
100
AcDbLinetypeTableRecord
  2
DASHDOT2
 70
0
  3
Dash dot (.5x) _._._._._._._._._._._._._._._.
 72
65
 73
4
 40
12.6999999999999993
 49
6.3499999999999996
 74
0
 49
-3.125
 74
0
 49
0.1
 74
0
 49
-3.125
 74
0
  0
LTYPE
  5
3F
100
AcDbSymbolTableRecord
100
AcDbLinetypeTableRecord
  2
ACAD_ISO12W100
 70
0
  3
ISO dash double-dot __ . . __ . . __ . . __ . . 
 72
65
 73
6
 40
21.0
 49
12.0
 74
0
 49
-2.9500000000000002
 74
0
 49
0.1
 74
0
 49
-2.9000000000000004
 74
0
 49
0.1
 74
0
 49
-2.9500000000000002
 74
0
  0
LTYPE
  5
40
100
AcDbSymbolTableRecord
100
AcDbLinetypeTableRecord
  2
ACAD_ISO07W100
 70
0
  3
ISO dot . . . . . . . . . . . . . . . . . . . . 
 72
65
 73
2
 40
3.0
 49
0.1
 74
0
 49
-2.8999999999999999
 74
0
  0
LTYPE
  5
41
100
AcDbSymbolTableRecord
100
AcDbLinetypeTableRecord
  2
HIDDEN
 70
0
  3
Hidden __ __ __ __ __ __ __ __ __ __ __ __ __ __
 72
65
 73
2
 40
9.5249999999999986
 49
6.3499999999999996
 74
0
 49
-3.1749999999999998
 74
0
  0
LTYPE
  5
42
100
AcDbSymbolTableRecord
100
AcDbLinetypeTableRecord
  2
ACAD_ISO06W100
 70
0
  3
ISO long-dash triple-dot ____ ... ____ ... ____
 72
65
 73
8
 40
36.0000000000000071
 49
24.0
 74
0
 49
-2.9500000000000002
 74
0
 49
0.1
 74
0
 49
-2.9000000000000004
 74
0
 49
0.1
 74
0
 49
-2.9000000000000004
 74
0
 49
0.1
 74
0
 49
-2.9500000000000002
 74
0
  0
LTYPE
  5
43
100
AcDbSymbolTableRecord
100
AcDbLinetypeTableRecord
  2
CENTER
 70
0
  3
Center ____ _ ____ _ ____ _ ____ _ ____ _ ____
 72
65
 73
4
 40
50.8000000000000043
 49
31.75
 74
0
 49
-6.3499999999999996
 74
0
 49
6.3499999999999996
 74
0
 49
-6.3499999999999996
 74
0
  0
LTYPE
  5
44
100
AcDbSymbolTableRecord
100
AcDbLinetypeTableRecord
  2
DOTX2
 70
0
  3
Dot (2x) .  .  .  .  .  .  .  .  .  .  .  .  .  .
 72
65
 73
2
 40
12.6999999999999993
 49
0.1
 74
0
 49
-12.5999999999999996
 74
0
  0
LTYPE
  5
45
100
AcDbSymbolTableRecord
100
AcDbLinetypeTableRecord
  2
PHANTOM
 70
0
  3
Phantom ______  __  __  ______  __  __  ______ 
 72
65
 73
6
 40
63.5000000000000071
 49
31.75
 74
0
 49
-6.3499999999999996
 74
0
 49
6.3499999999999996
 74
0
 49
-6.3499999999999996
 74
0
 49
6.3499999999999996
 74
0
 49
-6.3499999999999996
 74
0
  0
LTYPE
  5
46
100
AcDbSymbolTableRecord
100
AcDbLinetypeTableRecord
  2
ACAD_ISO08W100
 70
0
  3
ISO long-dash short-dash ____ __ ____ __ ____ _
 72
65
 73
4
 40
36.0
 49
24.0
 74
0
 49
-3.0
 74
0
 49
6.0
 74
0
 49
-3.0
 74
0
  0
LTYPE
  5
47
100
AcDbSymbolTableRecord
100
AcDbLinetypeTableRecord
  2
DASHEDX2
 70
0
  3
Dashed (2x) ____  ____  ____  ____  ____  ___
 72
65
 73
2
 40
38.0999999999999943
 49
25.3999999999999986
 74
0
 49
-12.6999999999999993
 74
0
  0
LTYPE
  5
48
100
AcDbSymbolTableRecord
100
AcDbLinetypeTableRecord
  2
ACAD_ISO02W100
 70
0
  3
ISO dash __ __ __ __ __ __ __ __ __ __ __ __ __
 72
65
 73
2
 40
15.0
 49
12.0
 74
0
 49
-3.0
 74
0
  0
LTYPE
  5
49
100
AcDbSymbolTableRecord
100
AcDbLinetypeTableRecord
  2
PHANTOM2
 70
0
  3
Phantom (.5x) ___ _ _ ___ _ _ ___ _ _ ___ _ _
 72
65
 73
6
 40
31.7500000000000036
 49
15.875
 74
0
 49
-3.1749999999999998
 74
0
 49
3.1749999999999998
 74
0
 49
-3.1749999999999998
 74
0
 49
3.1749999999999998
 74
0
 49
-3.1749999999999998
 74
0
  0
LTYPE
  5
4A
100
AcDbSymbolTableRecord
100
AcDbLinetypeTableRecord
  2
DASHED2
 70
0
  3
Dashed (.5x) _ _ _ _ _ _ _ _ _ _ _ _ _ _ _ _ _ 
 72
65
 73
2
 40
9.5249999999999986
 49
6.3499999999999996
 74
0
 49
-3.1749999999999998
 74
0
  0
LTYPE
  5
4B
100
AcDbSymbolTableRecord
100
AcDbLinetypeTableRecord
  2
ACAD_ISO09W100
 70
0
  3
ISO long-dash double-short-dash ____ __ __ ____
 72
65
 73
6
 40
45.0
 49
24.0
 74
0
 49
-3.0
 74
0
 49
6.0
 74
0
 49
-3.0
 74
0
 49
6.0
 74
0
 49
-3.0
 74
0
  0
LTYPE
  5
4C
100
AcDbSymbolTableRecord
100
AcDbLinetypeTableRecord
  2
ACAD_ISO13W100
 70
0
  3
ISO double-dash double-dot __ __ . . __ __ . . _
 72
65
 73
8
 40
36.0000000000000071
 49
12.0
 74
0
 49
-3.0
 74
0
 49
12.0
 74
0
 49
-2.9500000000000002
 74
0
 49
0.1
 74
0
 49
-2.9000000000000004
 74
0
 49
0.1
 74
0
 49
-2.9500000000000002
 74
0
  0
LTYPE
  5
4D
100
AcDbSymbolTableRecord
100
AcDbLinetypeTableRecord
  2
DOT2
 70
0
  3
Dot (.5x) ........................................
 72
65
 73
2
 40
3.1749999999999998
 49
0.1
 74
0
 49
-3.0749999999999997
 74
0
  0
LTYPE
  5
4E
100
AcDbSymbolTableRecord
100
AcDbLinetypeTableRecord
  2
DASHED
 70
0
  3
Dashed __ __ __ __ __ __ __ __ __ __ __ __ __ _
 72
65
 73
2
 40
19.0499999999999972
 49
12.6999999999999993
 74
0
 49
-6.3499999999999996
 74
0
  0
LTYPE
  5
4F
100
AcDbSymbolTableRecord
100
AcDbLinetypeTableRecord
  2
ACAD_ISO14W100
 70
0
  3
ISO dash triple-dot __ . . . __ . . . __ . . . _
 72
65
 73
8
 40
24.0000000000000036
 49
12.0
 74
0
 49
-2.9500000000000002
 74
0
 49
0.1
 74
0
 49
-2.9000000000000004
 74
0
 49
0.1
 74
0
 49
-2.9000000000000004
 74
0
 49
0.1
 74
0
 49
-2.9500000000000002
 74
0
  0
LTYPE
  5
15
100
AcDbSymbolTableRecord
100
AcDbLinetypeTableRecord
  2
BYLAYER
 70
0
  3

 72
65
 73
0
 40
0.0
  0
LTYPE
  5
50
100
AcDbSymbolTableRecord
100
AcDbLinetypeTableRecord
  2
PHANTOMX2
 70
0
  3
Phantom (2x) ____________    ____    ____   _
 72
65
 73
6
 40
127.0000000000000142
 49
63.5
 74
0
 49
-12.6999999999999993
 74
0
 49
12.6999999999999993
 74
0
 49
-12.6999999999999993
 74
0
 49
12.6999999999999993
 74
0
 49
-12.6999999999999993
 74
0
  0
LTYPE
  5
14
100
AcDbSymbolTableRecord
100
AcDbLinetypeTableRecord
  2
BYBLOCK
 70
0
  3

 72
65
 73
0
 40
0.0
  0
LTYPE
  5
51
100
AcDbSymbolTableRecord
100
AcDbLinetypeTableRecord
  2
DIVIDEX2
 70
0
  3
Divide (2x) ________  .  .  ________  .  .  _
 72
65
 73
6
 40
63.5
 49
25.3999999999999986
 74
0
 49
-12.6499999999999986
 74
0
 49
0.1
 74
0
 49
-12.5999999999999979
 74
0
 49
0.1
 74
0
 49
-12.6499999999999986
 74
0
  0
LTYPE
  5
52
100
AcDbSymbolTableRecord
100
AcDbLinetypeTableRecord
  2
BORDER
 70
0
  3
Border __ __ . __ __ . __ __ . __ __ . __ __ .
 72
65
 73
6
 40
44.4499999999999957
 49
12.6999999999999993
 74
0
 49
-6.3499999999999996
 74
0
 49
12.6999999999999993
 74
0
 49
-6.2999999999999998
 74
0
 49
0.1
 74
0
 49
-6.2999999999999998
 74
0
  0
LTYPE
  5
53
100
AcDbSymbolTableRecord
100
AcDbLinetypeTableRecord
  2
DIVIDE2
 70
0
  3
Divide (.5x) __..__..__..__..__..__..__..__.._
 72
65
 73
6
 40
15.8749999999999982
 49
6.3499999999999996
 74
0
 49
-3.125
 74
0
 49
0.1
 74
0
 49
-3.0750000000000002
 74
0
 49
0.1
 74
0
 49
-3.125
 74
0
  0
LTYPE
  5
54
100
AcDbSymbolTableRecord
100
AcDbLinetypeTableRecord
  2
DOT
 70
0
  3
Dot . . . . . . . . . . . . . . . . . . . . . . . .
 72
65
 73
2
 40
6.3499999999999996
 49
0.1
 74
0
 49
-6.25
 74
0
  0
LTYPE
  5
55
100
AcDbSymbolTableRecord
100
AcDbLinetypeTableRecord
  2
DASHDOT
 70
0
  3
Dash dot __ . __ . __ . __ . __ . __ . __ . __
 72
65
 73
4
 40
25.4000000000000021
 49
12.6999999999999993
 74
0
 49
-6.2999999999999998
 74
0
 49
0.1
 74
0
 49
-6.2999999999999998
 74
0
  0
LTYPE
  5
56
100
AcDbSymbolTableRecord
100
AcDbLinetypeTableRecord
  2
ACAD_ISO03W100
 70
0
  3
ISO dash space __    __    __    __    __    __
 72
65
 73
2
 40
30.0
 49
12.0
 74
0
 49
-18.0
 74
0
  0
ENDTAB
  0
TABLE
  2
LAYER
  5
2
100
AcDbSymbolTable
 70
5
  0
LAYER
  5
57
100
AcDbSymbolTableRecord
100
AcDbLayerTableRecord
  2
fixtureCutouts
 70
4
 62
7
420
0
  6
Continuous
370
25
390
F
  0
LAYER
  5
58
100
AcDbSymbolTableRecord
100
AcDbLayerTableRecord
  2
centreTop
 70
0
 62
6
420
16711935
  6
Continuous
370
50
390
F
  0
LAYER
  5
59
100
AcDbSymbolTableRecord
100
AcDbLayerTableRecord
  2
key cutouts
 70
4
 62
7
420
0
  6
Continuous
370
25
390
F
  0
LAYER
  5
5A
100
AcDbSymbolTableRecord
100
AcDbLayerTableRecord
  2
separatedWing
 70
4
 62
5
420
255
  6
Continuous
370
25
390
F
  0
LAYER
  5
10
100
AcDbSymbolTableRecord
100
AcDbLayerTableRecord
  2
0
 70
4
 62
7
420
0
  6
Continuous
370
25
390
F
  0
ENDTAB
  0
TABLE
  2
STYLE
  5
3
100
AcDbSymbolTable
 70
1
  0
STYLE
  5
5B
100
AcDbSymbolTableRecord
100
AcDbTextStyleTableRecord
  2
Standard
 70
0
 40
0.0
 41
1.0
 50
0.0
 71
0
 42
2.5
  3

  4

1001
ACAD
1000
txt
1071
0
  0
ENDTAB
  0
TABLE
  2
VIEW
  5
6
100
AcDbSymbolTable
 70
0
  0
ENDTAB
  0
TABLE
  2
UCS
  5
7
100
AcDbSymbolTable
 70
0
  0
ENDTAB
  0
TABLE
  2
APPID
  5
9
100
AcDbSymbolTable
 70
1
  0
APPID
  5
12
100
AcDbSymbolTableRecord
100
AcDbRegAppTableRecord
  2
ACAD
 70
0
  0
APPID
  5
5C
100
AcDbSymbolTableRecord
100
AcDbRegAppTableRecord
  2
QCAD
 70
0
  0
ENDTAB
  0
TABLE
  2
DIMSTYLE
  5
A
100
AcDbSymbolTable
 70
1
100
AcDbDimStyleTable
 71
0
  0
DIMSTYLE
105
27
100
AcDbSymbolTableRecord
100
AcDbDimStyleTableRecord
  2
Standard
 41
2.5
 42
0.625
 43
3.75
 44
1.25
 70
0
 73
0
 74
0
 77
1
 78
8
140
2.5
141
2.5
143
0.03937007874016
147
0.625
171
3
172
1
271
2
272
2
274
3
278
44
283
0
284
8
340
5B
  0
ENDTAB
  0
TABLE
  2
BLOCK_RECORD
  5
1
100
AcDbSymbolTable
 70
1
  0
BLOCK_RECORD
  5
1F
100
AcDbSymbolTableRecord
100
AcDbBlockTableRecord
  2
*Model_Space
340
22
  0
BLOCK_RECORD
  5
1B
100
AcDbSymbolTableRecord
100
AcDbBlockTableRecord
  2
*Paper_Space
340
1E
  0
BLOCK_RECORD
  5
23
100
AcDbSymbolTableRecord
100
AcDbBlockTableRecord
  2
*Paper_Space0
340
26
  0
ENDTAB
  0
ENDSEC
  0
SECTION
  2
BLOCKS
  0
BLOCK
  5
20
100
AcDbEntity
  8
0
100
AcDbBlockBegin
  2
*Model_Space
 70
0
 10
0.0
 20
0.0
 30
0.0
  3
*Model_Space
  1

  0
ENDBLK
  5
21
100
AcDbEntity
  8
0
100
AcDbBlockEnd
  0
BLOCK
  5
1C
100
AcDbEntity
 67
1
  8
0
100
AcDbBlockBegin
  2
*Paper_Space
 70
0
 10
0.0
 20
0.0
 30
0.0
  3
*Paper_Space
  1

  0
ENDBLK
  5
1D
100
AcDbEntity
 67
1
  8
0
100
AcDbBlockEnd
  0
BLOCK
  5
24
100
AcDbEntity
  8
0
100
AcDbBlockBegin
  2
*Paper_Space0
 70
0
 10
0.0
 20
0.0
 30
0.0
  3
*Paper_Space0
  1

  0
ENDBLK
  5
25
100
AcDbEntity
  8
0
100
AcDbBlockEnd
  0
ENDSEC
  0
SECTION
  2
ENTITIES
  0
LINE
  5
5D
100
AcDbEntity
100
AcDbLine
  8
key cutouts
 62
256
370
-1
 48
1.0
  6
BYLAYER
 10
-61.5565934089176565
 20
78.8017942143052892
 30
0.0
 11
-49.1853228988987041
 21
75.717290045409527
 31
0.0
  0
LINE
  5
5E
100
AcDbEntity
100
AcDbLine
  8
key cutouts
 62
256
370
-1
 48
1.0
  6
BYLAYER
 10
-49.1853228988987041
 20
75.717290045409527
 30
0.0
 11
-52.9351122806935663
 21
60.6777062881315956
 31
0.0
  0
LINE
  5
5F
100
AcDbEntity
100
AcDbLine
  8
key cutouts
 62
256
370
-1
 48
1.0
  6
BYLAYER
 10
-52.9351122806935663
 20
60.6777062881315956
 30
0.0
 11
-65.3063827907124903
 21
63.7622104570273649
 31
0.0
  0
LINE
  5
60
100
AcDbEntity
100
AcDbLine
  8
key cutouts
 62
256
370
-1
 48
1.0
  6
BYLAYER
 10
-65.3063827907124903
 20
63.7622104570273649
 30
0.0
 11
-61.5565934089176565
 21
78.8017942143052892
 31
0.0
  0
LINE
  5
61
100
AcDbEntity
100
AcDbLine
  8
key cutouts
 62
256
370
-1
 48
1.0
  6
BYLAYER
 10
-28.4361851395800187
 20
132.8960735428293845
 30
0.0
 11
-16.0649146295610592
 21
129.8115693739336507
 31
0.0
  0
LINE
  5
62
100
AcDbEntity
100
AcDbLine
  8
key cutouts
 62
256
370
-1
 48
1.0
  6
BYLAYER
 10
-16.0649146295610592
 20
129.8115693739336507
 30
0.0
 11
-19.8147040113559072
 21
114.771985616655698
 31
0.0
  0
LINE
  5
63
100
AcDbEntity
100
AcDbLine
  8
key cutouts
 62
256
370
-1
 48
1.0
  6
BYLAYER
 10
-19.8147040113559072
 20
114.771985616655698
 30
0.0
 11
-32.1859745213748667
 21
117.8564897855514459
 31
0.0
  0
LINE
  5
64
100
AcDbEntity
100
AcDbLine
  8
key cutouts
 62
256
370
-1
 48
1.0
  6
BYLAYER
 10
-32.1859745213748667
 20
117.8564897855514459
 30
0.0
 11
-28.4361851395800187
 21
132.8960735428293845
 31
0.0
  0
LINE
  5
65
100
AcDbEntity
100
AcDbLine
  8
key cutouts
 62
256
370
-1
 48
1.0
  6
BYLAYER
 10
-33.0327011559737045
 20
114.4604547435854727
 30
0.0
 11
-20.661430645954745
 21
111.3759505746897105
 31
0.0
  0
LINE
  5
66
100
AcDbEntity
100
AcDbLine
  8
key cutouts
 62
256
370
-1
 48
1.0
  6
BYLAYER
 10
-20.661430645954745
 20
111.3759505746897105
 30
0.0
 11
-24.4112200277495859
 21
96.3363668174117578
 31
0.0
  0
LINE
  5
67
100
AcDbEntity
100
AcDbLine
  8
key cutouts
 62
256
370
-1
 48
1.0
  6
BYLAYER
 10
-24.4112200277495859
 20
96.3363668174117578
 30
0.0
 11
-36.7824905377685525
 21
99.4208709863075342
 31
0.0
  0
LINE
  5
68
100
AcDbEntity
100
AcDbLine
  8
key cutouts
 62
256
370
-1
 48
1.0
  6
BYLAYER
 10
-36.7824905377685525
 20
99.4208709863075342
 30
0.0
 11
-33.0327011559737045
 21
114.4604547435854727
 31
0.0
  0
LINE
  5
69
100
AcDbEntity
100
AcDbLine
  8
key cutouts
 62
256
370
-1
 48
1.0
  6
BYLAYER
 10
-25.2579466623484521
 20
92.9403317754457987
 30
0.0
 11
-29.007736044143293
 21
77.9007480181678318
 31
0.0
  0
LINE
  5
6A
100
AcDbEntity
100
AcDbLine
  8
key cutouts
 62
256
370
-1
 48
1.0
  6
BYLAYER
 10
-29.007736044143293
 20
77.9007480181678318
 30
0.0
 11
-41.3790065541622383
 21
80.985252187063594
 31
0.0
  0
LINE
  5
6B
100
AcDbEntity
100
AcDbLine
  8
key cutouts
 62
256
370
-1
 48
1.0
  6
BYLAYER
 10
-41.3790065541622383
 20
80.985252187063594
 30
0.0
 11
-37.6292171723673974
 21
96.0248359443415467
 31
0.0
  0
LINE
  5
6C
100
AcDbEntity
100
AcDbLine
  8
key cutouts
 62
256
370
-1
 48
1.0
  6
BYLAYER
 10
-37.6292171723673974
 20
96.0248359443415467
 30
0.0
 11
-25.2579466623484521
 21
92.9403317754457987
 31
0.0
  0
LINE
  5
6D
100
AcDbEntity
100
AcDbLine
  8
key cutouts
 62
256
370
-1
 48
1.0
  6
BYLAYER
 10
-29.8544626787421379
 20
74.5047129762018585
 30
0.0
 11
-33.6042520605369859
 21
59.4651292189239129
 31
0.0
  0
LINE
  5
6E
100
AcDbEntity
100
AcDbLine
  8
key cutouts
 62
256
370
-1
 48
1.0
  6
BYLAYER
 10
-33.6042520605369859
 20
59.4651292189239129
 30
0.0
 11
-45.9755225705559312
 21
62.5496333878196609
 31
0.0
  0
LINE
  5
6F
100
AcDbEntity
100
AcDbLine
  8
key cutouts
 62
256
370
-1
 48
1.0
  6
BYLAYER
 10
-45.9755225705559312
 20
62.5496333878196609
 30
0.0
 11
-42.225733188761069
 21
77.5892171450975923
 31
0.0
  0
LINE
  5
70
100
AcDbEntity
100
AcDbLine
  8
key cutouts
 62
256
370
-1
 48
1.0
  6
BYLAYER
 10
-42.225733188761069
 20
77.5892171450975923
 30
0.0
 11
-29.8544626787421379
 21
74.5047129762018585
 31
0.0
  0
LINE
  5
71
100
AcDbEntity
100
AcDbLine
  8
key cutouts
 62
256
370
-1
 48
1.0
  6
BYLAYER
 10
-12.3712705100189453
 20
118.5845041688957622
 30
0.0
 11
0.0000000000000071
 21
115.5
 31
0.0
  0
LINE
  5
72
100
AcDbEntity
100
AcDbLine
  8
key cutouts
 62
256
370
-1
 48
1.0
  6
BYLAYER
 10
0.0000000000000071
 20
115.5
 30
0.0
 11
-3.7497893817948444
 21
100.4604162427220615
 31
0.0
  0
LINE
  5
73
100
AcDbEntity
100
AcDbLine
  8
key cutouts
 62
256
370
-1
 48
1.0
  6
BYLAYER
 10
-3.7497893817948444
 20
100.4604162427220615
 30
0.0
 11
-16.1210598918137933
 21
103.5449204116178095
 31
0.0
  0
LINE
  5
74
100
AcDbEntity
100
AcDbLine
  8
key cutouts
 62
256
370
-1
 48
1.0
  6
BYLAYER
 10
-16.1210598918137933
 20
103.5449204116178095
 30
0.0
 11
-12.3712705100189453
 21
118.5845041688957622
 31
0.0
  0
LINE
  5
75
100
AcDbEntity
100
AcDbLine
  8
key cutouts
 62
256
370
-1
 48
1.0
  6
BYLAYER
 10
-4.5965160163936787
 20
97.0643812007560598
 30
0.0
 11
-8.3463053981885338
 21
82.0247974434781213
 31
0.0
  0
LINE
  5
76
100
AcDbEntity
100
AcDbLine
  8
key cutouts
 62
256
370
-1
 48
1.0
  6
BYLAYER
 10
-8.3463053981885338
 20
82.0247974434781213
 30
0.0
 11
-20.7175759082075004
 21
85.1093016123738977
 31
0.0
  0
LINE
  5
77
100
AcDbEntity
100
AcDbLine
  8
key cutouts
 62
256
370
-1
 48
1.0
  6
BYLAYER
 10
-20.7175759082075004
 20
85.1093016123738977
 30
0.0
 11
-16.9677865264126311
 21
100.148885369651822
 31
0.0
  0
LINE
  5
78
100
AcDbEntity
100
AcDbLine
  8
key cutouts
 62
256
370
-1
 48
1.0
  6
BYLAYER
 10
-16.9677865264126311
 20
100.148885369651822
 30
0.0
 11
-4.5965160163936787
 21
97.0643812007560598
 31
0.0
  0
LINE
  5
79
100
AcDbEntity
100
AcDbLine
  8
key cutouts
 62
256
370
-1
 48
1.0
  6
BYLAYER
 10
-9.193032032787368
 20
78.6287624015121338
 30
0.0
 11
-12.9428214145822196
 21
63.5891786442341882
 31
0.0
  0
LINE
  5
7A
100
AcDbEntity
100
AcDbLine
  8
key cutouts
 62
256
370
-1
 48
1.0
  6
BYLAYER
 10
-12.9428214145822196
 20
63.5891786442341882
 30
0.0
 11
-25.3140919246011933
 21
66.6736828131299717
 31
0.0
  0
LINE
  5
7B
100
AcDbEntity
100
AcDbLine
  8
key cutouts
 62
256
370
-1
 48
1.0
  6
BYLAYER
 10
-25.3140919246011933
 20
66.6736828131299717
 30
0.0
 11
-21.564302542806324
 21
81.7132665704079102
 31
0.0
  0
LINE
  5
7C
100
AcDbEntity
100
AcDbLine
  8
key cutouts
 62
256
370
-1
 48
1.0
  6
BYLAYER
 10
-21.564302542806324
 20
81.7132665704079102
 30
0.0
 11
-9.193032032787368
 21
78.6287624015121338
 31
0.0
  0
LINE
  5
7D
100
AcDbEntity
100
AcDbLine
  8
key cutouts
 62
256
370
-1
 48
1.0
  6
BYLAYER
 10
-26.1608185592000027
 20
63.2776477711639629
 30
0.0
 11
-13.7895480491810574
 21
60.1931436022682007
 31
0.0
  0
LINE
  5
7E
100
AcDbEntity
100
AcDbLine
  8
key cutouts
 62
256
370
-1
 48
1.0
  6
BYLAYER
 10
-13.7895480491810574
 20
60.1931436022682007
 30
0.0
 11
-17.5393374309759125
 21
45.1535598449902551
 31
0.0
  0
LINE
  5
7F
100
AcDbEntity
100
AcDbLine
  8
key cutouts
 62
256
370
-1
 48
1.0
  6
BYLAYER
 10
-17.5393374309759125
 20
45.1535598449902551
 30
0.0
 11
-29.9106079409948435
 21
48.2380640138860031
 31
0.0
  0
LINE
  5
80
100
AcDbEntity
100
AcDbLine
  8
key cutouts
 62
256
370
-1
 48
1.0
  6
BYLAYER
 10
-29.9106079409948435
 20
48.2380640138860031
 30
0.0
 11
-26.1608185592000027
 21
63.2776477711639629
 31
0.0
  0
LINE
  5
81
100
AcDbEntity
100
AcDbLine
  8
key cutouts
 62
256
370
-1
 48
1.0
  6
BYLAYER
 10
-68.6703979012909826
 20
129.0143054604508279
 30
0.0
 11
-56.2991273912720303
 21
125.9298012915550089
 31
0.0
  0
LINE
  5
82
100
AcDbEntity
100
AcDbLine
  8
key cutouts
 62
256
370
-1
 48
1.0
  6
BYLAYER
 10
-56.2991273912720303
 20
125.9298012915550089
 30
0.0
 11
-60.0489167730668711
 21
110.8902175342770846
 31
0.0
  0
LINE
  5
83
100
AcDbEntity
100
AcDbLine
  8
key cutouts
 62
256
370
-1
 48
1.0
  6
BYLAYER
 10
-60.0489167730668711
 20
110.8902175342770846
 30
0.0
 11
-72.420187283085852
 21
113.9747217031728468
 31
0.0
  0
LINE
  5
84
100
AcDbEntity
100
AcDbLine
  8
key cutouts
 62
256
370
-1
 48
1.0
  6
BYLAYER
 10
-72.420187283085852
 20
113.9747217031728468
 30
0.0
 11
-68.6703979012909826
 21
129.0143054604508279
 31
0.0
  0
LINE
  5
85
100
AcDbEntity
100
AcDbLine
  8
key cutouts
 62
256
370
-1
 48
1.0
  6
BYLAYER
 10
-68.6703979012909826
 20
129.0143054604508279
 30
0.0
 11
-68.6703979012909826
 21
129.0143054604508279
 31
0.0
  0
LINE
  5
86
100
AcDbEntity
100
AcDbLine
  8
key cutouts
 62
256
370
-1
 48
1.0
  6
BYLAYER
 10
-73.2669139176846897
 20
110.5786866612068735
 30
0.0
 11
-60.8956434076657231
 21
107.4941824923111113
 31
0.0
  0
LINE
  5
87
100
AcDbEntity
100
AcDbLine
  8
key cutouts
 62
256
370
-1
 48
1.0
  6
BYLAYER
 10
-60.8956434076657231
 20
107.4941824923111113
 30
0.0
 11
-64.6454327894605854
 21
92.4545987350331728
 31
0.0
  0
LINE
  5
88
100
AcDbEntity
100
AcDbLine
  8
key cutouts
 62
256
370
-1
 48
1.0
  6
BYLAYER
 10
-64.6454327894605854
 20
92.4545987350331728
 30
0.0
 11
-77.0167032994795306
 21
95.5391029039289492
 31
0.0
  0
LINE
  5
89
100
AcDbEntity
100
AcDbLine
  8
key cutouts
 62
256
370
-1
 48
1.0
  6
BYLAYER
 10
-77.0167032994795306
 20
95.5391029039289492
 30
0.0
 11
-73.2669139176846897
 21
110.5786866612068735
 31
0.0
  0
LINE
  5
8A
100
AcDbEntity
100
AcDbLine
  8
key cutouts
 62
256
370
-1
 48
1.0
  6
BYLAYER
 10
-77.8634299340783684
 20
92.1430678619629191
 30
0.0
 11
-65.4921594240594231
 21
89.0585636930671569
 31
0.0
  0
LINE
  5
8B
100
AcDbEntity
100
AcDbLine
  8
key cutouts
 62
256
370
-1
 48
1.0
  6
BYLAYER
 10
-65.4921594240594231
 20
89.0585636930671569
 30
0.0
 11
-69.241948805854264
 21
74.0189799357892184
 31
0.0
  0
LINE
  5
8C
100
AcDbEntity
100
AcDbLine
  8
key cutouts
 62
256
370
-1
 48
1.0
  6
BYLAYER
 10
-69.241948805854264
 20
74.0189799357892184
 30
0.0
 11
-81.6132193158732093
 21
77.1034841046849806
 31
0.0
  0
LINE
  5
8D
100
AcDbEntity
100
AcDbLine
  8
key cutouts
 62
256
370
-1
 48
1.0
  6
BYLAYER
 10
-81.6132193158732093
 20
77.1034841046849806
 30
0.0
 11
-77.8634299340783684
 21
92.1430678619629191
 31
0.0
  0
LINE
  5
8E
100
AcDbEntity
100
AcDbLine
  8
key cutouts
 62
256
370
-1
 48
1.0
  6
BYLAYER
 10
-82.4599459504720755
 20
73.7074490627190073
 30
0.0
 11
-70.0886754404531018
 21
70.6229448938232451
 31
0.0
  0
LINE
  5
8F
100
AcDbEntity
100
AcDbLine
  8
key cutouts
 62
256
370
-1
 48
1.0
  6
BYLAYER
 10
-70.0886754404531018
 20
70.6229448938232451
 30
0.0
 11
-73.8384648222479143
 21
55.5833611365452498
 31
0.0
  0
LINE
  5
90
100
AcDbEntity
100
AcDbLine
  8
key cutouts
 62
256
370
-1
 48
1.0
  6
BYLAYER
 10
-73.8384648222479143
 20
55.5833611365452498
 30
0.0
 11
-86.2097353322669164
 21
58.6678653054410404
 31
0.0
  0
LINE
  5
91
100
AcDbEntity
100
AcDbLine
  8
key cutouts
 62
256
370
-1
 48
1.0
  6
BYLAYER
 10
-86.2097353322669164
 20
58.6678653054410404
 30
0.0
 11
-82.4599459504720755
 21
73.7074490627190073
 31
0.0
  0
LINE
  5
92
100
AcDbEntity
100
AcDbLine
  8
key cutouts
 62
256
370
-1
 48
1.0
  6
BYLAYER
 10
-47.7670453597365849
 20
134.1086506120370814
 30
0.0
 11
-35.3957748497176325
 21
131.0241464431413476
 31
0.0
  0
LINE
  5
93
100
AcDbEntity
100
AcDbLine
  8
key cutouts
 62
256
370
-1
 48
1.0
  6
BYLAYER
 10
-35.3957748497176325
 20
131.0241464431413476
 30
0.0
 11
-39.1455642315124877
 21
115.9845626858633949
 31
0.0
  0
LINE
  5
94
100
AcDbEntity
100
AcDbLine
  8
key cutouts
 62
256
370
-1
 48
1.0
  6
BYLAYER
 10
-39.1455642315124877
 20
115.9845626858633949
 30
0.0
 11
-51.5168347415314187
 21
119.0690668547591713
 31
0.0
  0
LINE
  5
95
100
AcDbEntity
100
AcDbLine
  8
key cutouts
 62
256
370
-1
 48
1.0
  6
BYLAYER
 10
-51.5168347415314187
 20
119.0690668547591713
 30
0.0
 11
-47.7670453597365849
 21
134.1086506120370814
 31
0.0
  0
LINE
  5
96
100
AcDbEntity
100
AcDbLine
  8
key cutouts
 62
256
370
-1
 48
1.0
  6
BYLAYER
 10
-52.3635613761302707
 20
115.6730318127931838
 30
0.0
 11
-39.9922908661113254
 21
112.5885276438974074
 31
0.0
  0
LINE
  5
97
100
AcDbEntity
100
AcDbLine
  8
key cutouts
 62
256
370
-1
 48
1.0
  6
BYLAYER
 10
-39.9922908661113254
 20
112.5885276438974074
 30
0.0
 11
-43.7420802479061734
 21
97.5489438866194547
 31
0.0
  0
LINE
  5
98
100
AcDbEntity
100
AcDbLine
  8
key cutouts
 62
256
370
-1
 48
1.0
  6
BYLAYER
 10
-43.7420802479061734
 20
97.5489438866194547
 30
0.0
 11
-56.1133507579251258
 21
100.6334480555152311
 31
0.0
  0
LINE
  5
99
100
AcDbEntity
100
AcDbLine
  8
key cutouts
 62
256
370
-1
 48
1.0
  6
BYLAYER
 10
-56.1133507579251258
 20
100.6334480555152311
 30
0.0
 11
-52.3635613761302707
 21
115.6730318127931838
 31
0.0
  0
LINE
  5
9A
100
AcDbEntity
100
AcDbLine
  8
key cutouts
 62
256
370
-1
 48
1.0
  6
BYLAYER
 10
-56.9600773925239636
 20
97.2374130135492294
 30
0.0
 11
-44.5888068825050112
 21
94.1529088446534672
 31
0.0
  0
LINE
  5
9B
100
AcDbEntity
100
AcDbLine
  8
key cutouts
 62
256
370
-1
 48
1.0
  6
BYLAYER
 10
-44.5888068825050112
 20
94.1529088446534672
 30
0.0
 11
-48.3385962642998805
 21
79.1133250873755429
 31
0.0
  0
LINE
  5
9C
100
AcDbEntity
100
AcDbLine
  8
key cutouts
 62
256
370
-1
 48
1.0
  6
BYLAYER
 10
-48.3385962642998805
 20
79.1133250873755429
 30
0.0
 11
-60.7098667743188045
 21
82.1978292562712767
 31
0.0
  0
LINE
  5
9D
100
AcDbEntity
100
AcDbLine
  8
key cutouts
 62
256
370
-1
 48
1.0
  6
BYLAYER
 10
-60.7098667743188045
 20
82.1978292562712767
 30
0.0
 11
-56.9600773925239636
 21
97.2374130135492294
 31
0.0
  0
ARC
  5
9E
100
AcDbEntity
  8
separatedWing
 62
256
370
-1
 48
1.0
  6
BYLAYER
100
AcDbCircle
 10
-17.5288249284581141
 20
44.5316583138460445
 30
0.0
 40
9.6743290818151753
100
AcDbArc
 50
226.2216687892912717
 51
349.9188966868363764
  0
ARC
  5
9F
100
AcDbEntity
  8
separatedWing
 62
256
370
-1
 48
1.0
  6
BYLAYER
100
AcDbCircle
 10
-84.9410530858360318
 20
57.841578917607265
 30
0.0
 40
9.6743290818151753
100
AcDbArc
 50
161.9051034972394518
 51
285.6023313947845281
  0
ARC
  5
A0
100
AcDbEntity
  8
separatedWing
 62
256
370
-1
 48
1.0
  6
BYLAYER
100
AcDbCircle
 10
-62.8914282211219913
 20
-7.3072268383474253
 30
0.0
 40
59.1211153895204546
100
AcDbArc
 50
49.2348204804996996
 51
109.2047861995276747
  0
ARC
  5
A1
100
AcDbEntity
  8
separatedWing
 62
256
370
-1
 48
1.0
  6
BYLAYER
100
AcDbCircle
 10
-39.7040911529279938
 20
82.8414930051166181
 30
0.0
 40
61.1475850312288287
100
AcDbArc
 50
41.5317035818852034
 51
118.375335730873914
  0
LINE
  5
A2
100
AcDbEntity
100
AcDbLine
  8
separatedWing
 62
256
370
-1
 48
1.0
  6
BYLAYER
 10
-8.0038581613775008
 20
42.8382442270779222
 30
0.0
 11
9.6330667832770054
 21
112.8159686386095757
 31
0.0
  0
ARC
  5
A3
100
AcDbEntity
  8
separatedWing
 62
256
370
-1
 48
1.0
  6
BYLAYER
100
AcDbCircle
 10
-3.4717299576039857
 20
114.2829541010000156
 30
0.0
 40
13.1866502178024572
100
AcDbArc
 50
353.6127508285921408
 51
43.6463228321732046
  0
LINE
  5
A4
100
AcDbEntity
100
AcDbLine
  8
separatedWing
 62
256
370
-1
 48
1.0
  6
BYLAYER
 10
-94.1369227506194051
 20
60.8463458456021584
 30
0.0
 11
-76.1442763731446348
 21
129.4597199873184081
 31
0.0
  0
ARC
  5
A5
100
AcDbEntity
  8
separatedWing
 62
256
370
-1
 48
1.0
  6
BYLAYER
100
AcDbCircle
 10
-64.3278977431535566
 20
124.7013820015854577
 30
0.0
 40
12.7384686800956928
100
AcDbArc
 50
110.3809687536088973
 51
158.0658449627472351
  0
CIRCLE
  5
A6
100
AcDbEntity
100
AcDbCircle
  8
fixtureCutouts
 62
256
370
-1
 48
1.0
  6
BYLAYER
 10
-87.8699912854565639
 20
54.0928884210330665
 30
0.0
 40
1.5
  0
CIRCLE
  5
A7
100
AcDbEntity
100
AcDbCircle
  8
fixtureCutouts
 62
256
370
-1
 48
1.0
  6
BYLAYER
 10
-61.6145653630793859
 20
132.6736948205230817
 30
0.0
 40
1.5
  0
CIRCLE
  5
A8
100
AcDbEntity
100
AcDbCircle
  8
fixtureCutouts
 62
256
370
-1
 48
1.0
  6
BYLAYER
 10
-16.5055091241015361
 20
40.0814214878843345
 30
0.0
 40
1.5
  0
CIRCLE
  5
A9
100
AcDbEntity
100
AcDbCircle
  8
fixtureCutouts
 62
256
370
-1
 48
1.0
  6
BYLAYER
 10
-6.0
 20
70.5
 30
0.0
 40
1.5
  0
LINE
  5
AA
100
AcDbEntity
100
AcDbLine
  8
key cutouts
 62
256
370
-1
 48
1.0
  6
BYLAYER
 10
0.9499999999999957
 20
59.0
 30
0.0
 11
13.6999999999999957
 21
59.0
 31
0.0
  0
LINE
  5
AB
100
AcDbEntity
100
AcDbLine
  8
key cutouts
 62
256
370
-1
 48
1.0
  6
BYLAYER
 10
13.6999999999999957
 20
59.0
 30
0.0
 11
13.6999999999999957
 21
43.5
 31
0.0
  0
LINE
  5
AC
100
AcDbEntity
100
AcDbLine
  8
key cutouts
 62
256
370
-1
 48
1.0
  6
BYLAYER
 10
13.6999999999999957
 20
43.5
 30
0.0
 11
0.9499999999999957
 21
43.5
 31
0.0
  0
LINE
  5
AD
100
AcDbEntity
100
AcDbLine
  8
key cutouts
 62
256
370
-1
 48
1.0
  6
BYLAYER
 10
0.9499999999999957
 20
43.5
 30
0.0
 11
0.9499999999999957
 21
59.0
 31
0.0
  0
LINE
  5
AE
100
AcDbEntity
100
AcDbLine
  8
key cutouts
 62
256
370
-1
 48
1.0
  6
BYLAYER
 10
20.0
 20
59.0
 30
0.0
 11
32.75
 21
59.0
 31
0.0
  0
LINE
  5
AF
100
AcDbEntity
100
AcDbLine
  8
key cutouts
 62
256
370
-1
 48
1.0
  6
BYLAYER
 10
32.75
 20
59.0
 30
0.0
 11
32.75
 21
43.5
 31
0.0
  0
LINE
  5
B0
100
AcDbEntity
100
AcDbLine
  8
key cutouts
 62
256
370
-1
 48
1.0
  6
BYLAYER
 10
32.75
 20
43.5
 30
0.0
 11
20.0
 21
43.5
 31
0.0
  0
LINE
  5
B1
100
AcDbEntity
100
AcDbLine
  8
key cutouts
 62
256
370
-1
 48
1.0
  6
BYLAYER
 10
20.0
 20
43.5
 30
0.0
 11
20.0
 21
59.0
 31
0.0
  0
LINE
  5
B2
100
AcDbEntity
100
AcDbLine
  8
key cutouts
 62
256
370
-1
 48
1.0
  6
BYLAYER
 10
39.0499999999999972
 20
59.0
 30
0.0
 11
51.7999999999999972
 21
59.0
 31
0.0
  0
LINE
  5
B3
100
AcDbEntity
100
AcDbLine
  8
key cutouts
 62
256
370
-1
 48
1.0
  6
BYLAYER
 10
51.7999999999999972
 20
59.0
 30
0.0
 11
51.7999999999999972
 21
43.5
 31
0.0
  0
LINE
  5
B4
100
AcDbEntity
100
AcDbLine
  8
key cutouts
 62
256
370
-1
 48
1.0
  6
BYLAYER
 10
51.7999999999999972
 20
43.5
 30
0.0
 11
39.0499999999999972
 21
43.5
 31
0.0
  0
LINE
  5
B5
100
AcDbEntity
100
AcDbLine
  8
key cutouts
 62
256
370
-1
 48
1.0
  6
BYLAYER
 10
39.0499999999999972
 20
43.5
 30
0.0
 11
39.0499999999999972
 21
59.0
 31
0.0
  0
LINE
  5
B6
100
AcDbEntity
100
AcDbLine
  8
key cutouts
 62
256
370
-1
 48
1.0
  6
BYLAYER
 10
58.0999999999999943
 20
59.0
 30
0.0
 11
70.8499999999999943
 21
59.0
 31
0.0
  0
LINE
  5
B7
100
AcDbEntity
100
AcDbLine
  8
key cutouts
 62
256
370
-1
 48
1.0
  6
BYLAYER
 10
70.8499999999999943
 20
59.0
 30
0.0
 11
70.8499999999999943
 21
43.5
 31
0.0
  0
LINE
  5
B8
100
AcDbEntity
100
AcDbLine
  8
key cutouts
 62
256
370
-1
 48
1.0
  6
BYLAYER
 10
70.8499999999999943
 20
43.5
 30
0.0
 11
58.0999999999999943
 21
43.5
 31
0.0
  0
LINE
  5
B9
100
AcDbEntity
100
AcDbLine
  8
key cutouts
 62
256
370
-1
 48
1.0
  6
BYLAYER
 10
58.0999999999999943
 20
43.5
 30
0.0
 11
58.0999999999999943
 21
59.0
 31
0.0
  0
LINE
  5
BA
100
AcDbEntity
100
AcDbLine
  8
key cutouts
 62
256
370
-1
 48
1.0
  6
BYLAYER
 10
0.9499999999999957
 20
40.0
 30
0.0
 11
13.6999999999999957
 21
40.0
 31
0.0
  0
LINE
  5
BB
100
AcDbEntity
100
AcDbLine
  8
key cutouts
 62
256
370
-1
 48
1.0
  6
BYLAYER
 10
13.6999999999999957
 20
40.0
 30
0.0
 11
13.6999999999999957
 21
24.5
 31
0.0
  0
LINE
  5
BC
100
AcDbEntity
100
AcDbLine
  8
key cutouts
 62
256
370
-1
 48
1.0
  6
BYLAYER
 10
13.6999999999999957
 20
24.5
 30
0.0
 11
0.9499999999999957
 21
24.5
 31
0.0
  0
LINE
  5
BD
100
AcDbEntity
100
AcDbLine
  8
key cutouts
 62
256
370
-1
 48
1.0
  6
BYLAYER
 10
0.9499999999999957
 20
24.5
 30
0.0
 11
0.9499999999999957
 21
40.0
 31
0.0
  0
LINE
  5
BE
100
AcDbEntity
100
AcDbLine
  8
key cutouts
 62
256
370
-1
 48
1.0
  6
BYLAYER
 10
20.0
 20
40.0
 30
0.0
 11
32.75
 21
40.0
 31
0.0
  0
LINE
  5
BF
100
AcDbEntity
100
AcDbLine
  8
key cutouts
 62
256
370
-1
 48
1.0
  6
BYLAYER
 10
32.75
 20
40.0
 30
0.0
 11
32.75
 21
24.5
 31
0.0
  0
LINE
  5
C0
100
AcDbEntity
100
AcDbLine
  8
key cutouts
 62
256
370
-1
 48
1.0
  6
BYLAYER
 10
32.75
 20
24.5
 30
0.0
 11
20.0
 21
24.5
 31
0.0
  0
LINE
  5
C1
100
AcDbEntity
100
AcDbLine
  8
key cutouts
 62
256
370
-1
 48
1.0
  6
BYLAYER
 10
20.0
 20
24.5
 30
0.0
 11
20.0
 21
40.0
 31
0.0
  0
LINE
  5
C2
100
AcDbEntity
100
AcDbLine
  8
key cutouts
 62
256
370
-1
 48
1.0
  6
BYLAYER
 10
39.0499999999999972
 20
40.0
 30
0.0
 11
51.7999999999999972
 21
40.0
 31
0.0
  0
LINE
  5
C3
100
AcDbEntity
100
AcDbLine
  8
key cutouts
 62
256
370
-1
 48
1.0
  6
BYLAYER
 10
51.7999999999999972
 20
40.0
 30
0.0
 11
51.7999999999999972
 21
24.5
 31
0.0
  0
LINE
  5
C4
100
AcDbEntity
100
AcDbLine
  8
key cutouts
 62
256
370
-1
 48
1.0
  6
BYLAYER
 10
51.7999999999999972
 20
24.5
 30
0.0
 11
39.0499999999999972
 21
24.5
 31
0.0
  0
LINE
  5
C5
100
AcDbEntity
100
AcDbLine
  8
key cutouts
 62
256
370
-1
 48
1.0
  6
BYLAYER
 10
39.0499999999999972
 20
24.5
 30
0.0
 11
39.0499999999999972
 21
40.0
 31
0.0
  0
LINE
  5
C6
100
AcDbEntity
100
AcDbLine
  8
key cutouts
 62
256
370
-1
 48
1.0
  6
BYLAYER
 10
58.0999999999999943
 20
40.0
 30
0.0
 11
70.8499999999999943
 21
40.0
 31
0.0
  0
LINE
  5
C7
100
AcDbEntity
100
AcDbLine
  8
key cutouts
 62
256
370
-1
 48
1.0
  6
BYLAYER
 10
70.8499999999999943
 20
40.0
 30
0.0
 11
70.8499999999999943
 21
24.5
 31
0.0
  0
LINE
  5
C8
100
AcDbEntity
100
AcDbLine
  8
key cutouts
 62
256
370
-1
 48
1.0
  6
BYLAYER
 10
70.8499999999999943
 20
24.5
 30
0.0
 11
58.0999999999999943
 21
24.5
 31
0.0
  0
LINE
  5
C9
100
AcDbEntity
100
AcDbLine
  8
key cutouts
 62
256
370
-1
 48
1.0
  6
BYLAYER
 10
58.0999999999999943
 20
24.5
 30
0.0
 11
58.0999999999999943
 21
40.0
 31
0.0
  0
LINE
  5
CA
100
AcDbEntity
100
AcDbLine
  8
key cutouts
 62
256
370
-1
 48
1.0
  6
BYLAYER
 10
0.9499999999999957
 20
21.0
 30
0.0
 11
13.6999999999999886
 21
21.0
 31
0.0
  0
LINE
  5
CB
100
AcDbEntity
100
AcDbLine
  8
key cutouts
 62
256
370
-1
 48
1.0
  6
BYLAYER
 10
13.6999999999999886
 20
21.0
 30
0.0
 11
13.6999999999999886
 21
5.5
 31
0.0
  0
LINE
  5
CC
100
AcDbEntity
100
AcDbLine
  8
key cutouts
 62
256
370
-1
 48
1.0
  6
BYLAYER
 10
13.6999999999999886
 20
5.5
 30
0.0
 11
0.9499999999999957
 21
5.5
 31
0.0
  0
LINE
  5
CD
100
AcDbEntity
100
AcDbLine
  8
key cutouts
 62
256
370
-1
 48
1.0
  6
BYLAYER
 10
0.9499999999999957
 20
5.5
 30
0.0
 11
0.9499999999999957
 21
21.0
 31
0.0
  0
LINE
  5
CE
100
AcDbEntity
100
AcDbLine
  8
key cutouts
 62
256
370
-1
 48
1.0
  6
BYLAYER
 10
20.0
 20
21.0
 30
0.0
 11
32.7499999999999858
 21
21.0
 31
0.0
  0
LINE
  5
CF
100
AcDbEntity
100
AcDbLine
  8
key cutouts
 62
256
370
-1
 48
1.0
  6
BYLAYER
 10
32.7499999999999858
 20
21.0
 30
0.0
 11
32.7499999999999858
 21
5.5
 31
0.0
  0
LINE
  5
D0
100
AcDbEntity
100
AcDbLine
  8
key cutouts
 62
256
370
-1
 48
1.0
  6
BYLAYER
 10
32.7499999999999858
 20
5.5
 30
0.0
 11
20.0
 21
5.5
 31
0.0
  0
LINE
  5
D1
100
AcDbEntity
100
AcDbLine
  8
key cutouts
 62
256
370
-1
 48
1.0
  6
BYLAYER
 10
20.0
 20
5.5
 30
0.0
 11
20.0
 21
21.0
 31
0.0
  0
LINE
  5
D2
100
AcDbEntity
100
AcDbLine
  8
key cutouts
 62
256
370
-1
 48
1.0
  6
BYLAYER
 10
39.0499999999999972
 20
21.0
 30
0.0
 11
51.7999999999999972
 21
21.0
 31
0.0
  0
LINE
  5
D3
100
AcDbEntity
100
AcDbLine
  8
key cutouts
 62
256
370
-1
 48
1.0
  6
BYLAYER
 10
51.7999999999999972
 20
21.0
 30
0.0
 11
51.7999999999999972
 21
5.5
 31
0.0
  0
LINE
  5
D4
100
AcDbEntity
100
AcDbLine
  8
key cutouts
 62
256
370
-1
 48
1.0
  6
BYLAYER
 10
51.7999999999999972
 20
5.5
 30
0.0
 11
39.0499999999999972
 21
5.5
 31
0.0
  0
LINE
  5
D5
100
AcDbEntity
100
AcDbLine
  8
key cutouts
 62
256
370
-1
 48
1.0
  6
BYLAYER
 10
39.0499999999999972
 20
5.5
 30
0.0
 11
39.0499999999999972
 21
21.0
 31
0.0
  0
LINE
  5
D6
100
AcDbEntity
100
AcDbLine
  8
key cutouts
 62
256
370
-1
 48
1.0
  6
BYLAYER
 10
58.0999999999999943
 20
21.0
 30
0.0
 11
70.8499999999999943
 21
21.0
 31
0.0
  0
LINE
  5
D7
100
AcDbEntity
100
AcDbLine
  8
key cutouts
 62
256
370
-1
 48
1.0
  6
BYLAYER
 10
70.8499999999999943
 20
21.0
 30
0.0
 11
70.8499999999999943
 21
5.5
 31
0.0
  0
LINE
  5
D8
100
AcDbEntity
100
AcDbLine
  8
key cutouts
 62
256
370
-1
 48
1.0
  6
BYLAYER
 10
70.8499999999999943
 20
5.5
 30
0.0
 11
58.0999999999999943
 21
5.5
 31
0.0
  0
LINE
  5
D9
100
AcDbEntity
100
AcDbLine
  8
key cutouts
 62
256
370
-1
 48
1.0
  6
BYLAYER
 10
58.0999999999999943
 20
5.5
 30
0.0
 11
58.0999999999999943
 21
21.0
 31
0.0
  0
POINT
  5
DA
100
AcDbEntity
100
AcDbPoint
  8
key cutouts
 62
256
370
-1
 48
1.0
  6
BYLAYER
 10
35.8999999999999915
 20
32.25
 30
0.0
  0
ARC
  5
DB
100
AcDbEntity
  8
centreTop
 62
256
370
-1
 48
1.0
  6
BYLAYER
100
AcDbCircle
 10
-6.0
 20
70.5
 30
0.0
 40
4.3452147129830649
100
AcDbArc
 50
89.9999999999999858
 51
249.7625572133628395
  0
ARC
  5
DC
100
AcDbEntity
  8
centreTop
 62
256
370
-1
 48
1.0
  6
BYLAYER
100
AcDbCircle
 10
-6.0
 20
70.5
 30
0.0
 40
28.5015478262423478
100
AcDbArc
 50
243.0000833640040412
 51
260.2286032693685911
  0
LINE
  5
DD
100
AcDbEntity
100
AcDbLine
  8
centreTop
 62
256
370
-1
 48
1.0
  6
BYLAYER
 10
-10.8372126241908848
 20
42.4119313138131844
 30
0.0
 11
-4.8376487700435877
 21
65.440369509383217
 31
0.0
  0
LINE
  5
DE
100
AcDbEntity
100
AcDbLine
  8
centreTop
 62
256
370
-1
 48
1.0
  6
BYLAYER
 10
-4.8376487700435877
 20
65.440369509383217
 30
0.0
 11
-7.5030592819997626
 21
66.4230276311067769
 31
0.0
  0
ARC
  5
DF
100
AcDbEntity
  8
centreTop
 62
256
370
-1
 48
1.0
  6
BYLAYER
100
AcDbCircle
 10
-20.6101007950842323
 20
41.8259595555177341
 30
0.0
 40
3.680056245871985
100
AcDbArc
 50
63.0000833640040341
 51
250.2522835192120851
  0
ARC
  5
E0
100
AcDbEntity
  8
centreTop
 62
256
370
-1
 48
1.0
  6
BYLAYER
100
AcDbCircle
 10
-6.0
 20
70.5
 30
0.0
 40
30.6816040721143324
100
AcDbArc
 50
243.0000833640040412
 51
276.2444064024057298
  0
ARC
  5
E1
100
AcDbEntity
  8
centreTop
 62
256
370
-1
 48
1.0
  6
BYLAYER
100
AcDbCircle
 10
-6.0
 20
70.5
 30
0.0
 40
33.6520156786202165
100
AcDbArc
 50
243.3111014838911501
 51
275.966792676509499
  0
ARC
  5
E2
100
AcDbEntity
  8
centreTop
 62
256
370
-1
 48
1.0
  6
BYLAYER
100
AcDbCircle
 10
-20.6101007950842323
 20
41.8259595555177341
 30
0.0
 40
1.5
100
AcDbArc
 50
63.0000833640041122
 51
254.6601092493914109
  0
ARC
  5
E3
100
AcDbEntity
  8
centreTop
 62
256
370
-1
 48
1.0
  6
BYLAYER
100
AcDbCircle
 10
-2.4996124635842651
 20
38.5093306142364185
 30
0.0
 40
1.5
100
AcDbArc
 50
264.5843805170183032
 51
96.244406402405744
  0
ARC
  5
E4
100
AcDbEntity
  8
centreTop
 62
256
370
-1
 48
1.0
  6
BYLAYER
100
AcDbCircle
 10
-6.0
 20
70.5
 30
0.0
 40
35.8352315930811969
100
AcDbArc
 50
242.9710010697802147
 51
265.1175478727039376
  0
LINE
  5
E5
100
AcDbEntity
100
AcDbLine
  8
centreTop
 62
256
370
-1
 48
1.0
  6
BYLAYER
 10
-9.0500000000000043
 20
5.5
 30
0.0
 11
-9.0500000000000025
 21
34.794799771885252
 31
0.0
  0
LINE
  5
E6
100
AcDbEntity
100
AcDbLine
  8
centreTop
 62
256
370
-1
 48
1.0
  6
BYLAYER
 10
0.9499999999999957
 20
-4.5
 30
0.0
 11
35.8999999999999915
 21
-4.5000000000000018
 31
0.0
  0
ARC
  5
E7
100
AcDbEntity
  8
centreTop
 62
256
370
-1
 48
1.0
  6
BYLAYER
100
AcDbCircle
 10
0.9499999999999957
 20
5.5
 30
0.0
 40
10.0
100
AcDbArc
 50
180.0
 51
270.0
  0
ARC
  5
E8
100
AcDbEntity
  8
centreTop
 62
256
370
-1
 48
1.0
  6
BYLAYER
100
AcDbCircle
 10
77.7999999999999829
 20
70.4999999999999858
 30
0.0
 40
28.5015478262423478
100
AcDbArc
 50
279.7713967306314089
 51
296.9999166359959872
  0
LINE
  5
E9
100
AcDbEntity
100
AcDbLine
  8
centreTop
 62
256
370
-1
 48
1.0
  6
BYLAYER
 10
82.637212624190866
 20
42.411931313813156
 30
0.0
 11
76.6376487700435689
 21
65.4403695093832027
 31
0.0
  0
LINE
  5
EA
100
AcDbEntity
100
AcDbLine
  8
centreTop
 62
256
370
-1
 48
1.0
  6
BYLAYER
 10
76.6376487700435689
 20
65.4403695093832027
 30
0.0
 11
79.3030592819997366
 21
66.4230276311067769
 31
0.0
  0
ARC
  5
EB
100
AcDbEntity
  8
centreTop
 62
256
370
-1
 48
1.0
  6
BYLAYER
100
AcDbCircle
 10
92.4101007950842188
 20
41.825959555517727
 30
0.0
 40
3.680056245871985
100
AcDbArc
 50
289.7477164807879149
 51
116.9999166359959446
  0
ARC
  5
EC
100
AcDbEntity
  8
centreTop
 62
256
370
-1
 48
1.0
  6
BYLAYER
100
AcDbCircle
 10
77.7999999999999829
 20
70.4999999999999858
 30
0.0
 40
35.8352315930811969
100
AcDbArc
 50
274.8824521272960624
 51
297.0289989302198137
  0
ARC
  5
ED
100
AcDbEntity
  8
centreTop
 62
256
370
-1
 48
1.0
  6
BYLAYER
100
AcDbCircle
 10
77.7999999999999829
 20
70.4999999999999858
 30
0.0
 40
4.3452147129830649
100
AcDbArc
 50
290.237442786637132
 51
90.0000000000000142
  0
LINE
  5
EE
100
AcDbEntity
100
AcDbLine
  8
centreTop
 62
256
370
-1
 48
1.0
  6
BYLAYER
 10
80.8499999999999943
 20
5.5000000000000142
 30
0.0
 11
80.8499999999999943
 21
34.7947997718852449
 31
0.0
  0
ARC
  5
EF
100
AcDbEntity
  8
centreTop
 62
256
370
-1
 48
1.0
  6
BYLAYER
100
AcDbCircle
 10
77.7999999999999829
 20
70.4999999999999858
 30
0.0
 40
30.6816040721143324
100
AcDbArc
 50
263.7555935975942702
 51
296.9999166359959872
  0
LINE
  5
F0
100
AcDbEntity
100
AcDbLine
  8
centreTop
 62
256
370
-1
 48
1.0
  6
BYLAYER
 10
70.8499999999999943
 20
-4.4999999999999929
 30
0.0
 11
35.8999999999999915
 21
-4.5
 31
0.0
  0
ARC
  5
F1
100
AcDbEntity
  8
centreTop
 62
256
370
-1
 48
1.0
  6
BYLAYER
100
AcDbCircle
 10
77.7999999999999829
 20
70.4999999999999858
 30
0.0
 40
33.6520156786202165
100
AcDbArc
 50
264.033207323490501
 51
296.6888985161088499
  0
ARC
  5
F2
100
AcDbEntity
  8
centreTop
 62
256
370
-1
 48
1.0
  6
BYLAYER
100
AcDbCircle
 10
92.4101007950842188
 20
41.825959555517727
 30
0.0
 40
1.5
100
AcDbArc
 50
285.3398907506086175
 51
116.999916635995902
  0
ARC
  5
F3
100
AcDbEntity
  8
centreTop
 62
256
370
-1
 48
1.0
  6
BYLAYER
100
AcDbCircle
 10
74.2996124635842534
 20
38.5093306142364327
 30
0.0
 40
1.5
100
AcDbArc
 50
83.755593597594256
 51
275.4156194829816968
  0
ARC
  5
F4
100
AcDbEntity
  8
centreTop
 62
256
370
-1
 48
1.0
  6
BYLAYER
100
AcDbCircle
 10
70.8499999999999943
 20
5.5000000000000142
 30
0.0
 40
10.0
100
AcDbArc
 50
270.0
 51
0.0
  0
LINE
  5
F5
100
AcDbEntity
100
AcDbLine
  8
centreTop
 62
256
370
-1
 48
1.0
  6
BYLAYER
 10
44.8999999999999915
 20
95.0
 30
0.0
 11
26.8999999999999915
 21
95.0
 31
0.0
  0
ARC
  5
F6
100
AcDbEntity
  8
centreTop
 62
256
370
-1
 48
1.0
  6
BYLAYER
100
AcDbCircle
 10
16.8999999999999879
 20
84.8452147129830507
 30
0.0
 40
10.0
100
AcDbArc
 50
270.0
 51
0.0
  0
ARC
  5
F7
100
AcDbEntity
  8
centreTop
 62
256
370
-1
 48
1.0
  6
BYLAYER
100
AcDbCircle
 10
54.8999999999999915
 20
84.8452147129830507
 30
0.0
 40
10.0
100
AcDbArc
 50
180.0
 51
269.9999967454389207
  0
LINE
  5
F8
100
AcDbEntity
100
AcDbLine
  8
centreTop
 62
256
370
-1
 48
1.0
  6
BYLAYER
 10
77.7999999999999829
 20
74.8452147129830792
 30
0.0
 11
54.8999994319719207
 21
74.8452147129830649
 31
0.0
  0
LINE
  5
F9
100
AcDbEntity
100
AcDbLine
  8
centreTop
 62
256
370
-1
 48
1.0
  6
BYLAYER
 10
44.8999999999999915
 20
84.8452147129830507
 30
0.0
 11
44.8999999999999915
 21
95.0
 31
0.0
  0
LINE
  5
FA
100
AcDbEntity
100
AcDbLine
  8
centreTop
 62
256
370
-1
 48
1.0
  6
BYLAYER
 10
26.8999999999999915
 20
95.0
 30
0.0
 11
26.8999999999999915
 21
84.8452147129830507
 31
0.0
  0
LINE
  5
FB
100
AcDbEntity
100
AcDbLine
  8
centreTop
 62
256
370
-1
 48
1.0
  6
BYLAYER
 10
-5.9999999999999991
 20
74.8452147129830649
 30
0.0
 11
16.8999999999999844
 21
74.8452147129830507
 31
0.0
  0
CIRCLE
  5
FC
100
AcDbEntity
100
AcDbCircle
  8
centreTop
 62
256
370
-1
 48
1.0
  6
BYLAYER
 10
-6.0
 20
70.5
 30
0.0
 40
1.5
  0
CIRCLE
  5
FD
100
AcDbEntity
100
AcDbCircle
  8
centreTop
 62
256
370
-1
 48
1.0
  6
BYLAYER
 10
77.7999999999999829
 20
70.4999999999999858
 30
0.0
 40
1.5
  0
ENDSEC
  0
SECTION
  2
OBJECTS
  0
DICTIONARY
  5
C
100
AcDbDictionary
280
0
281
1
  3
ACAD_GROUP
350
D
  3
ACAD_LAYOUT
350
1A
  3
ACAD_MLINESTYLE
350
17
  3
ACAD_PLOTSETTINGS
350
19
  3
ACAD_PLOTSTYLENAME
350
E
  3
AcDbVariableDictionary
350
FE
  3
QCAD_OBJECTS
350
FF
  0
DICTIONARY
  5
D
100
AcDbDictionary
280
0
281
1
  0
ACDBDICTIONARYWDFLT
  5
E
100
AcDbDictionary
281
1
  3
Normal
350
F
100
AcDbDictionaryWithDefault
340
F
  0
ACDBPLACEHOLDER
  5
F
  0
DICTIONARY
  5
17
100
AcDbDictionary
280
0
281
1
  3
Standard
350
18
  0
MLINESTYLE
  5
18
100
AcDbMlineStyle
  2
STANDARD
 70
0
  3

 62
256
 51
90.0
 52
90.0
 71
2
 49
0.5
 62
256
  6
BYLAYER
 49
-0.5
 62
256
  6
BYLAYER
  0
DICTIONARY
  5
19
100
AcDbDictionary
280
0
281
1
  0
DICTIONARY
  5
1A
100
AcDbDictionary
281
1
  3
Layout1
350
1E
  3
Layout2
350
26
  3
Model
350
22
  0
LAYOUT
  5
1E
100
AcDbPlotSettings
  1

  2
none_device
  4

  6

 40
0.0
 41
0.0
 42
0.0
 43
0.0
 44
0.0
 45
0.0
 46
0.0
 47
0.0
 48
0.0
 49
0.0
140
0.0
141
0.0
142
1.0
143
1.0
 70
688
 72
0
 73
0
 74
5
  7

 75
16
147
1.0
148
0.0
149
0.0
100
AcDbLayout
  1
Layout1
 70
1
 71
1
 10
0.0
 20
0.0
 11
420.0
 21
297.0
 12
0.0
 22
0.0
 32
0.0
 14
100000000000000000000.0
 24
100000000000000000000.0
 34
100000000000000000000.0
 15
-100000000000000000000.0
 25
-100000000000000000000.0
 35
-100000000000000000000.0
146
0.0
 13
0.0
 23
0.0
 33
0.0
 16
1.0
 26
0.0
 36
0.0
 17
0.0
 27
1.0
 37
0.0
 76
0
330
1B
  0
LAYOUT
  5
22
100
AcDbPlotSettings
  1

  2
none_device
  4

  6

 40
0.0
 41
0.0
 42
0.0
 43
0.0
 44
0.0
 45
0.0
 46
0.0
 47
0.0
 48
0.0
 49
0.0
140
0.0
141
0.0
142
1.0
143
1.0
 70
1712
 72
0
 73
0
 74
0
  7

 75
0
147
1.0
148
0.0
149
0.0
100
AcDbLayout
  1
Model
 70
1
 71
0
 10
0.0
 20
0.0
 11
12.0
 21
9.0
 12
0.0
 22
0.0
 32
0.0
 14
0.0
 24
0.0
 34
0.0
 15
0.0
 25
0.0
 35
0.0
146
0.0
 13
0.0
 23
0.0
 33
0.0
 16
1.0
 26
0.0
 36
0.0
 17
0.0
 27
1.0
 37
0.0
 76
0
330
1F
  0
LAYOUT
  5
26
100
AcDbPlotSettings
  1

  2
none_device
  4

  6

 40
0.0
 41
0.0
 42
0.0
 43
0.0
 44
0.0
 45
0.0
 46
0.0
 47
0.0
 48
0.0
 49
0.0
140
0.0
141
0.0
142
1.0
143
1.0
 70
688
 72
0
 73
0
 74
5
  7

 75
16
147
1.0
148
0.0
149
0.0
100
AcDbLayout
  1
Layout2
 70
1
 71
2
 10
0.0
 20
0.0
 11
12.0
 21
9.0
 12
0.0
 22
0.0
 32
0.0
 14
0.0
 24
0.0
 34
0.0
 15
0.0
 25
0.0
 35
0.0
146
0.0
 13
0.0
 23
0.0
 33
0.0
 16
1.0
 26
0.0
 36
0.0
 17
0.0
 27
1.0
 37
0.0
 76
0
330
23
  0
DICTIONARY
  5
FE
100
AcDbDictionary
281
1
  3
DIMASSOC
350
101
  3
HIDETEXT
350
100
  0
DICTIONARYVAR
  5
100
100
DictionaryVariables
280
0
  1
2
  0
DICTIONARYVAR
  5
101
100
DictionaryVariables
280
0
  1
1
  0
DICTIONARY
  5
FF
100
AcDbDictionary
281
1
  3
ColorSettings/BackgroundColor
350
102
  3
ColorSettings/ColorMode
350
103
  3
Grid/DisplayGrid00
350
104
  3
Grid/DisplayGrid01
350
105
  3
Grid/DisplayGrid02
350
106
  3
Grid/DisplayGrid03
350
107
  3
Grid/GridSpacingX00
350
108
  3
Grid/GridSpacingX01
350
109
  3
Grid/GridSpacingX02
350
10A
  3
Grid/GridSpacingX03
350
10B
  3
Grid/GridSpacingY00
350
10C
  3
Grid/GridSpacingY01
350
10D
  3
Grid/GridSpacingY02
350
10E
  3
Grid/GridSpacingY03
350
10F
  3
Grid/IsometricGrid00
350
110
  3
Grid/IsometricGrid01
350
111
  3
Grid/IsometricGrid02
350
112
  3
Grid/IsometricGrid03
350
113
  3
Grid/IsometricProjection00
350
114
  3
Grid/IsometricProjection01
350
115
  3
Grid/IsometricProjection02
350
116
  3
Grid/IsometricProjection03
350
117
  3
Grid/MetaGridSpacingX00
350
118
  3
Grid/MetaGridSpacingX01
350
119
  3
Grid/MetaGridSpacingX02
350
11A
  3
Grid/MetaGridSpacingX03
350
11B
  3
Grid/MetaGridSpacingY00
350
11C
  3
Grid/MetaGridSpacingY01
350
11D
  3
Grid/MetaGridSpacingY02
350
11E
  3
Grid/MetaGridSpacingY03
350
11F
  3
MultiPageSettings/Columns
350
120
  3
MultiPageSettings/GlueMarginsBottom
350
121
  3
MultiPageSettings/GlueMarginsLeft
350
122
  3
MultiPageSettings/GlueMarginsRight
350
123
  3
MultiPageSettings/GlueMarginsTop
350
124
  3
MultiPageSettings/PrintCropMarks
350
125
  3
MultiPageSettings/Rows
350
126
  3
PageSettings/OffsetX
350
127
  3
PageSettings/OffsetY
350
128
  3
PageSettings/PageOrientation
350
129
  3
PageSettings/PaperHeight
350
12A
  3
PageSettings/PaperWidth
350
12B
  3
PageSettings/Scale
350
12C
  3
PageSettings/ShowPaperBorders
350
12D
  3
UnitSettings/PaperUnit
350
12E
  0
XRECORD
  5
102
330
FF
100
AcDbXrecord
280
1
1000
White
  0
XRECORD
  5
103
330
FF
100
AcDbXrecord
280
1
1000
FullColor
  0
XRECORD
  5
104
330
FF
100
AcDbXrecord
280
1
290
0
  0
XRECORD
  5
105
330
FF
100
AcDbXrecord
280
1
290
1
  0
XRECORD
  5
106
330
FF
100
AcDbXrecord
280
1
290
1
  0
XRECORD
  5
107
330
FF
100
AcDbXrecord
280
1
290
1
  0
XRECORD
  5
108
330
FF
100
AcDbXrecord
280
1
1000
auto
  0
XRECORD
  5
109
330
FF
100
AcDbXrecord
280
1
1000
auto
  0
XRECORD
  5
10A
330
FF
100
AcDbXrecord
280
1
1000
auto
  0
XRECORD
  5
10B
330
FF
100
AcDbXrecord
280
1
1000
auto
  0
XRECORD
  5
10C
330
FF
100
AcDbXrecord
280
1
1000
auto
  0
XRECORD
  5
10D
330
FF
100
AcDbXrecord
280
1
1000
auto
  0
XRECORD
  5
10E
330
FF
100
AcDbXrecord
280
1
1000
auto
  0
XRECORD
  5
10F
330
FF
100
AcDbXrecord
280
1
1000
auto
  0
XRECORD
  5
110
330
FF
100
AcDbXrecord
280
1
290
0
  0
XRECORD
  5
111
330
FF
100
AcDbXrecord
280
1
290
0
  0
XRECORD
  5
112
330
FF
100
AcDbXrecord
280
1
290
0
  0
XRECORD
  5
113
330
FF
100
AcDbXrecord
280
1
290
0
  0
XRECORD
  5
114
330
FF
100
AcDbXrecord
280
1
 90
0
  0
XRECORD
  5
115
330
FF
100
AcDbXrecord
280
1
 90
0
  0
XRECORD
  5
116
330
FF
100
AcDbXrecord
280
1
 90
0
  0
XRECORD
  5
117
330
FF
100
AcDbXrecord
280
1
 90
0
  0
XRECORD
  5
118
330
FF
100
AcDbXrecord
280
1
1000
auto
  0
XRECORD
  5
119
330
FF
100
AcDbXrecord
280
1
1000
auto
  0
XRECORD
  5
11A
330
FF
100
AcDbXrecord
280
1
1000
auto
  0
XRECORD
  5
11B
330
FF
100
AcDbXrecord
280
1
1000
auto
  0
XRECORD
  5
11C
330
FF
100
AcDbXrecord
280
1
1000
auto
  0
XRECORD
  5
11D
330
FF
100
AcDbXrecord
280
1
1000
auto
  0
XRECORD
  5
11E
330
FF
100
AcDbXrecord
280
1
1000
auto
  0
XRECORD
  5
11F
330
FF
100
AcDbXrecord
280
1
1000
auto
  0
XRECORD
  5
120
330
FF
100
AcDbXrecord
280
1
 90
1
  0
XRECORD
  5
121
330
FF
100
AcDbXrecord
280
1
 40
10.0
  0
XRECORD
  5
122
330
FF
100
AcDbXrecord
280
1
 40
10.0
  0
XRECORD
  5
123
330
FF
100
AcDbXrecord
280
1
 40
10.0
  0
XRECORD
  5
124
330
FF
100
AcDbXrecord
280
1
 40
10.0
  0
XRECORD
  5
125
330
FF
100
AcDbXrecord
280
1
290
0
  0
XRECORD
  5
126
330
FF
100
AcDbXrecord
280
1
 90
1
  0
XRECORD
  5
127
330
FF
100
AcDbXrecord
280
1
 40
0.0
  0
XRECORD
  5
128
330
FF
100
AcDbXrecord
280
1
 40
0.0
  0
XRECORD
  5
129
330
FF
100
AcDbXrecord
280
1
1000
Portrait
  0
XRECORD
  5
12A
330
FF
100
AcDbXrecord
280
1
 40
420.0
  0
XRECORD
  5
12B
330
FF
100
AcDbXrecord
280
1
 40
297.0
  0
XRECORD
  5
12C
330
FF
100
AcDbXrecord
280
1
1000
1:1
  0
XRECORD
  5
12D
330
FF
100
AcDbXrecord
280
1
290
1
  0
XRECORD
  5
12E
330
FF
100
AcDbXrecord
280
1
 90
4
  0
ENDSEC
  0
EOF
